<svg height="92" viewBox="0 0 1885 92" width="1885" xmlns="http://www.w3.org/2000/svg" xmlns:xlink="http://www.w3.org/1999/xlink"><mask id="a" fill="#fff"><path d="m.59159334.6096h52.07340666v53.4169277h-52.07340666z" fill="#fff" fill-rule="evenodd"/></mask><mask id="b" fill="#fff"><path d="m.28716913.123h82.73621997v91.5749h-82.73621997z" fill="#fff" fill-rule="evenodd"/></mask><mask id="c" fill="#fff"><path d="m0 92h1884.665v-91.877h-1884.665z" fill="#fff" fill-rule="evenodd"/></mask><g fill="#333" fill-rule="evenodd" opacity=".65" transform="translate(0 -.1228)"><g><path d="m99.5818 65.8422c0-1.48.237-2.896.653-4.219.319-1.015.749-1.97 1.275-2.851.29-.489.6-.959.946-1.396-.109-.098-.229-.191-.332-.294-1.474-1.473-2.252-3.273-2.252-5.205 0-4.641 2.572-8.496 5.832-10.585-3.378-9.284-11.057-16.619-19.393-16.619-6.171 0-12.048 5.788-12.048 15.773 0 7.096 4.383 15.43 10.955 19.66-2.682 3.011-4.53 7.088-4.53 11.451 0 6.816 6.619 15.049 11.245 15.049 2.642 0 6.201-1.809 8.88-4.862-.007-.244-.025-.486-.025-.732 0-2.022.457-4.816 1.243-7.266-1.566-2.24-2.449-5.015-2.449-7.904"/><path d="m147.7605 40.4457c0-9.984-5.878-15.772-12.048-15.772-8.328 0-16.001 7.321-19.383 16.591.732.466 1.431 1.013 2.073 1.656 2.383 2.382 3.75 5.647 3.75 8.957 0 1.931-.78 3.731-2.253 5.205-.1.099-.216.187-.322.283.347.441.654.912.942 1.398.528.893.956 1.852 1.271 2.862.42 1.341.651 2.763.651 4.216 0 2.884-.88 5.655-2.441 7.893.708 2.147 1.235 4.746 1.235 7.277 0 .247-.018.489-.025.733 2.679 3.053 6.238 4.861 8.88 4.861 4.626 0 11.245-8.232 11.245-15.049 0-4.363-1.849-8.439-4.529-11.451 6.57-4.229 10.954-12.563 10.954-19.66"/><path d="m120.4411 65.8422c0-3.602-1.542-6.783-3.903-8.748 2.066-1.13 3.614-2.904 3.614-5.217 0-4.677-3.152-8.567-6.717-9.835.264-3.395 1.146-7.712 2.279-11 .969-.27 2.123-2.542 2.777-4.007.753-1.686 1.861-4.584.831-5.044-.112-.05-.296-.092-.528-.003-.793.304-1.936 2.338-2.672 3.989-.587 1.312-1.174 2.967-1.24 3.993-1.279 3.426-2.275 8.072-2.587 11.77-.427-.082-.856-.136-1.284-.136-.427 0-.856.054-1.284.136-.311-3.699-1.307-8.345-2.586-11.771-.067-1.026-.654-2.68-1.24-3.992-.736-1.651-1.879-3.685-2.672-3.989-.232-.089-.415-.047-.528.003-.113.051-.267.16-.355.391-.303.794.449 3.003 1.186 4.653.736 1.65 1.879 3.686 2.672 3.99.039.015.068.008.104.017 1.133 3.287 2.015 7.605 2.28 11-3.565 1.268-6.717 5.158-6.717 9.835 0 2.313 1.548 4.087 3.613 5.217-2.361 1.965-3.902 5.146-3.902 8.748 0 2.937 1.025 5.597 2.683 7.545-.776 2.021-1.477 4.819-1.477 7.625 0 5.305 1.929 9.453 3.569 9.453 2.187 0 3.376-4.631 3.376-9.744 0-1.541-.201-2.979-.508-4.268.579.127 1.175.2 1.786.2.612 0 1.208-.073 1.787-.2-.307 1.289-.508 2.727-.508 4.268 0 5.113 1.189 9.744 3.377 9.744 1.639 0 3.568-4.148 3.568-9.453 0-2.806-.702-5.604-1.477-7.625 1.658-1.948 2.683-4.608 2.683-7.545"/><path d="m1355.3684 50.0209c0-11.71 13.68-19.6991664 13.68-19.6991664s-4.925-.1088336-17.619 5.2531664c-12.695 5.362-15.649 10.068-15.649 10.068s1.969 5.691 1.641 8.755c-.274 2.551-1.614 4.257-3.253 5.265-.86-4.637-2.258-7.892-2.986-7.892-.508 0-.656.292-1.53 1.313-.876 1.022-3.577 1.09-4.379 1.09-.801 0-3.501-.068-4.376-1.09-.876-1.021-1.021-1.313-1.533-1.313-.726 0-2.124 3.256-2.984 7.893-1.64-1.009-2.98-2.715-3.253-5.266-.328-3.064 1.641-8.755 1.641-8.755s-2.954-4.706-15.648-10.068-17.619-5.2531664-17.619-5.2531664 13.679 7.9891664 13.679 19.6991664c0 5.799-5.8 9.521-8.207 10.833 0 0 7.55-1.752 11.599 2.627 4.05 4.376 4.268 8.755 3.721 12.039 0 0 2.951-5.846 13.412-6.106.238 4.052 1.245 7.832 3.028 10.488-2.269 1.43-4.476 4.36-4.476 7.18 0 0-6.565.729-6.565 2.846 0 .875.947 1.312 2.261.947 1.313-.365 3.867-1.094 5.325-1.24 1.46-.147 4.598 0 4.598-.875s-2.19-1.75-3.429-1.75c0 0 .462-3.854 3.667-5.442 1.395 1.354 3.111 2.155 5.159 2.155 2.049 0 3.767-.801 5.161-2.155 3.206 1.588 3.667 5.442 3.667 5.442-1.24 0-3.427.875-3.427 1.75s3.134.728 4.595.875c1.458.146 4.012.875 5.326 1.24 1.312.365 2.261-.072 2.261-.947 0-2.117-6.566-2.846-6.566-2.846 0-2.82-2.206-5.75-4.475-7.18 1.783-2.656 2.79-6.436 3.028-10.488 10.462.26 13.412 6.106 13.412 6.106-.548-3.284-.328-7.663 3.72-12.039 4.05-4.379 11.601-2.627 11.601-2.627-2.407-1.312-8.208-5.034-8.208-10.833"/><path d="m45.99 80.6127c19.914-5.981 19.376-27.693 16.777-34.746-1.375-3.735-1.62-3.596-1.094 1.108 1.245 11.153-.787 20.282-8.488 25.548-1.932 1.319-3.114 1.856-4.468 1.911.058-.562.079-1.136.061-1.722.179.245.32.425.663.722 0-.931-.102-2.267-.26-3.755.661-.292 1.329-.698 1.979-1.198.447.222.731.661.748 1.483.031 1.355 1.075.974 1.424-.32.595-2.214-.546-3.938-2.532-3.407-1.223.325-1.594-.399-1.291-1.025.26-.54.786-.819 1.157-.555 1.54 1.086 2.418.702 1.811-.554-.576-1.188-1.529-2.115-2.624-2.093-.48.009-1.01.406-1.586.97-.137-.835-.269-1.596-.389-2.23.18.121.481.36.601.481-.153-.96-.452-1.831-.962-2.766.301.362 1.022.602 1.862.722-.865-.955-1.713-2.146-2.222-3.186.3.18.841.361 1.562.24-.928-.927-1.31-1.532-1.682-2.501 3.236 1.507 6.513 3.459 9.681 5.477-2.683-2.489-6.357-4.942-9.497-6.841 2.223.334 4.102-.264 4.881-1.703 1.242.141 2.431.288 3.442.408-1.119-.486-2.154-.875-3.153-1.186.154-.667.127-1.456-.136-2.367.047-.046.094-.096.141-.143 2.971-.242 6.08-.376 8.652-.408-2.427-.551-4.918-.852-7.412-.959.27-.323.506-.62.687-.862.67-.897.638-.948.061-1.407-.576-.457-.915-.7-1.528-1.099-.402-.261-.363-.25-.02-.778.563-.869.956-1.512 1.342-2.477.585-1.452.646-1.606-.882-1.648-1.804-.049-3.556.038-5.224.246-4.008.5-5.499 1.338-6.644 3.431-.315-.522-.566-.872-.584-1.051-.082-.84-.216-.963-.601-.963-.795 0-1.13-.076-1.803-.3.18-.361.48-.72.962-.961-1.27-.477-1.967-.44-3.126-.121.328-.987.809-1.772 1.563-2.644-1.631.504-2.779 1.164-3.811 2.103.121-.782.724-2.241 1.466-3.306-1.404.611-4.054 1.771-4.865 3.066-.812-1.295-3.46-2.455-4.866-3.066.745 1.065 1.346 2.524 1.467 3.306-1.032-.939-2.179-1.599-3.811-2.103.752.872 1.235 1.657 1.564 2.644-1.16-.319-1.856-.356-3.127.121.481.241.781.6.962.961-.673.224-1.008.3-1.804.3-.384 0-.519.123-.601.963-.017.179-.27.531-.584 1.054-1.145-2.07-2.667-2.937-6.641-3.434-1.671-.208-3.422-.295-5.225-.246-1.484.042-1.489.14-.884 1.648.388.965.78 1.608 1.344 2.477.342.528.38.517-.019.778-.615.399-.956.642-1.53 1.099-.577.459-.607.51.062 1.407.178.239.411.533.679.853-2.563.1-5.121.402-7.615.968 2.637.033 5.842.173 8.883.427.041.041.08.083.121.124-.255.885-.289 1.653-.151 2.308-1.059.321-2.156.728-3.348 1.245 1.065-.126 2.326-.282 3.64-.43.74 1.395 2.506 2.013 4.621 1.764-3.126 1.891-6.771 4.33-9.436 6.802 3.253-2.07 6.617-4.07 9.935-5.592-.387 1.038-.761 1.652-1.726 2.616.721.121 1.263-.06 1.563-.24-.508 1.04-1.356 2.231-2.225 3.186.842-.12 1.564-.36 1.864-.722-.508.935-.81 1.806-.961 2.766.12-.121.42-.36.6-.481-.124.651-.261 1.437-.4 2.299-.602-.6-1.156-1.029-1.655-1.039-1.095-.022-2.047.905-2.623 2.093-.608 1.256.271 1.64 1.81.554.373-.264.898.015 1.159.555.302.626-.07 1.35-1.291 1.025-1.987-.531-3.129 1.193-2.533 3.407.348 1.294 1.393 1.675 1.424.32.017-.822.302-1.261.749-1.483.675.518 1.369.937 2.055 1.231-.156 1.475-.257 2.798-.257 3.722.342-.297.483-.477.661-.722-.108 3.55 1.187 6.714 3.839 8.89-.847.282-1.688.617-2.395.989-1.138.593-1.896.809-2.761.486-1.756-.66-2.72-.696-3.84.271-.974.837-1.403 1.419-1.948 2.218-.784 1.148-.368 1.419 1.082.919.866-.298 1.569-.595 2.326-.759-1.067.934-1.823 1.778-2.109 2.937-.429 1.728.015 2.037 1.027 1.168 1.65-1.414 2.558-2.09 4.544-2.752-.598.672-1.053 1.596-1.191 2.488-.233 1.525.374 1.984.915 1.388.926-1.018 2.024-2.271 3.468-2.414 1.373-.138 2.435-.408 3.896-1.191.876-.469 2.254-1.098 3.247-1.31.355-.075.603-.342.66-.677.041-.25.046-.579.029-.931.15.022.299.044.452.06 3.678.433 10.141.433 13.819 0 .153-.016.302-.038.451-.06-.017.352-.012.681.03.931.056.335.303.602.658.677.996.212 2.372.841 3.248 1.31 1.461.783 2.523 1.053 3.896 1.191 1.443.143 2.543 1.396 3.468 2.414.542.596 1.148.137.915-1.388-.137-.892-.593-1.816-1.191-2.488 1.985.662 2.894 1.338 4.545 2.752 1.012.869 1.455.56 1.027-1.168-.287-1.159-1.044-2.003-2.109-2.937.756.164 1.459.461 2.326.759 1.451.5 1.867.229 1.081-.919-.546-.799-.973-1.381-1.948-2.218-1.12-.967-2.085-.931-3.84-.271-.865.323-1.623.107-2.759-.486-.708-.372-1.55-.707-2.396-.989.378-.31.726-.64 1.049-.989"/><path d="m1822.2405 39.7743c-.691-4.194-2.234-1.839-2.523-.28-1.334 7.178-6.129 19.347-18.262 22.039-.953-1.906-2.303-3.45-3.967-4.084-.32-2.612-1.033-4.786-1.922-6.895 2.055 1.711 3.58 3.478 4.444 4.731.646.94 1.466 1.369 2.291 1.446.396.897.97 1.83 1.142 1.776.274-.086.426-1.08.486-2.073.082-.039.159-.087.239-.132.783.722 2.054 1.535 2.205 1.386.256-.254-.315-1.692-.834-2.742.029-.051.053-.103.08-.155.947.198 2.014.274 2.068.104.106-.312-.865-1.204-1.754-1.89-.045-.371-.15-.748-.351-1.124-1.928-3.628-5.317-6.984-8.74-9.506.351-.519.851-1.001 1.638-1.247 1.787-.56 4.27 1.016 4.567 1.561s1.273 1.241 1.214-.276c-.058-1.517 1.284-4.635 3.006-4.66 2.881-.044 4.143 5.635 4.137 6.25-.01.613 1.022 1.306.945-.063-.597-10.726-5.81-18.72-14.218-22.162-1.121-.459-3.973-.474-2.827 2.172 2.057 4.761-.74 12.715-3.904 14.763-.701-.757-1.178-1.718-1.412-2.681-.246-1.123-.465-2.321-.644-3.614.556-.933.884-2.02.884-3.186 0-.24-.017-.477-.043-.709-.152-1.596-.064-3.37.405-4.695.004-.012.004-.021.007-.032.206-.654.317-1.349.317-2.072 0-2.437-1.268-4.575-3.174-5.804.611-1.233 1.406-1.97 2.486-2.341 1.205-.415 2.012-.105 2.948.254.964.371 2.06.791 3.468.191 2.383-1.016 2.887-3.239 3.053-3.971.086-.378-.152-.753-.529-.838-.377-.087-.754.151-.84.529-.219.968-.688 2.332-2.234 2.989-.885.38-1.528.133-2.416-.209-.989-.379-2.217-.853-3.907-.271-1.599.55-2.597 1.683-3.275 3.034-.127-.049-.254-.099-.385-.141-.807-1.72-1.705-3.43-2.099-3.43-.393 0-1.291 1.708-2.096 3.428-.129.039-.252.089-.377.138-.678-1.35-1.674-2.48-3.27-3.029-1.687-.581-2.92-.108-3.908.271-.889.342-1.531.587-2.418.209-1.545-.657-2.014-2.021-2.234-2.989-.086-.378-.461-.618-.838-.529-.377.085-.613.46-.529.838.166.732.67 2.955 3.052 3.971 1.41.6 2.506.18 3.471-.191.934-.359 1.74-.669 2.947-.254 1.076.37 1.867 1.103 2.479 2.332-1.916 1.227-3.188 3.37-3.188 5.813 0 .641.094 1.258.256 1.846.004.075.018.158.053.258.492 1.391.574 3.284.387 4.939-.006.066 0 .116.004.173-.004.097-.016.193-.016.292 0 1.166.328 2.252.885 3.186-.17 1.233-.377 2.381-.61 3.46-.218 1.012-.709 2.035-1.449 2.834-3.16-2.051-5.959-10.001-3.9-14.762 1.144-2.646-1.707-2.631-2.826-2.172-8.411 3.442-13.624 11.436-14.221 22.162-.078 1.369.955.676.947.063-.008-.615 1.256-6.294 4.135-6.25 1.724.025 3.064 3.143 3.006 4.66-.059 1.517.92.821 1.215.276.298-.545 2.779-2.121 4.566-1.561.787.246 1.287.727 1.639 1.246-3.424 2.522-6.813 5.879-8.743 9.507-.201.376-.306.753-.353 1.124-.889.686-1.857 1.578-1.754 1.89.057.17 1.123.094 2.07-.104.026.052.051.104.08.155-.521 1.051-1.089 2.488-.834 2.742.153.149 1.422-.664 2.206-1.386.078.045.156.093.238.132.06.993.213 1.987.484 2.073.174.054.75-.879 1.143-1.776.826-.077 1.646-.506 2.293-1.446.863-1.253 2.388-3.022 4.447-4.733-.891 2.11-1.604 4.285-1.924 6.898-4.471 1.703-6.672 9.985-5.023 14.194 1.681 4.299 4.431 5.641 5.607 8.227.701 1.541-1.963 2.804-3.926 3.644-.31.135-.627.289-.937.459-.047.016-.09.022-.145.047-2.81 1.32-4.705 3.828-4.558 4.387.051.187.832.115 1.711-.072-.504.753-.838 1.441-.772 1.689.063.236 1.526.109 2.799-.16-.318.482-.51.9-.457 1.097.092.344 4.189-.212 6.473-1.107.007-.004.013-.014.023-.018.869-.314 1.746-.814 2.594-1.556 1.246-1.09 3.287-2.725 3.736-4.299.508-1.77-.887-3.924-1.164-6.801.965.711 2.082 1.272 3.315 1.692.14.05.281.093.421.138.311.098.629.184.954.266.035.008.07.018.105.025 2.898.703 6.283.78 9.75.389-.469 1.684-1.016 3.078-.668 4.291.449 1.574 2.492 3.209 3.738 4.299.846.742 1.725 1.242 2.592 1.556.01.004.014.014.026.018 2.281.895 6.38 1.451 6.472 1.107.053-.197-.138-.613-.457-1.097 1.274.269 2.736.396 2.799.16.064-.248-.268-.936-.773-1.689.878.187 1.66.259 1.71.072.149-.559-1.746-3.067-4.556-4.387-.055-.025-.098-.033-.145-.047-.312-.17-.629-.326-.937-.459-1.963-.84-4.629-2.103-3.926-3.644.246-.543.563-1.028.922-1.498 5.221-1.422 9.998-3.674 12.84-6.155 12.226-10.668 13.162-22.818 11.572-32.444"/><path d="m1750.0911 31.913c-2.176-2.002-10.93-2.564-18.453.204-.047-.484-.117-.917-.176-1.135-.146-.556-1.361-.599-1.529-.362-.172.236-.281 1.751-.356 1.929-.076.179-1.019.175-1.177-.132-.159-.306-.252-1.785-.475-2.162-.221-.379-1.84-.02-1.887.32-.047.341.623 2.429.627 2.762.002.33-.988 1.289-1.828 1.598-.142-.225-.48-.667-.807-.736-.328-.069-1.306.347-1.31.639-.004.291 1.119 1.638 1.424 1.877.033.027.082.046.142.059-4.5 4.235-10.465 11.237-13.564 14.077-1.444 1.323-3.924 3.009-6.805 4.107-.195.462-.375.881-.519 1.212.021 3.062.447 5.166.82 6.599 7.135-6.229 14.279-4.469 14.92-4.928.701-.5 5.828-19.685 28.236-25.756.756.21 1.483.468 2.174.779 1.355.61 1.611.033.543-.951"/><path d="m1688.6145 54.9579c-2.883-1.098-5.363-2.784-6.809-4.106-3.218-2.954-9.537-10.4-14.086-14.565.438-.496 1.008-1.242 1.006-1.449-.004-.292-.984-.708-1.308-.639-.328.07-.666.511-.809.737-.838-.31-1.832-1.269-1.828-1.599.006-.333.676-2.421.627-2.762-.045-.34-1.666-.699-1.887-.32-.222.377-.316 1.856-.474 2.162-.094.184-.471.258-.774.25-.138-.061-.279-.118-.42-.174-.074-.328-.179-1.653-.338-1.873-.17-.237-1.384-.194-1.533.362-.041.162-.09.443-.133.772-7.269-2.353-15.334-1.751-17.408.159-1.068.984-.816 1.561.543.951.69-.311 1.418-.569 2.174-.779 22.404 6.071 27.533 25.256 28.234 25.756.641.459 7.787-1.301 14.92 4.929.375-1.434.801-3.538.821-6.6-.145-.331-.325-.75-.518-1.212"/><path d="m1689.3489 68.3114c-.615 1.056-1.025 2.17-1.025 3.037 0 .594.13 1.197.353 1.795-1.029 1.912-2.703 3.63-3.264 4.381-1.294 1.741-2.138 4.252-.691 5.727.031.033.07.051.107.077-1.638 1.394-3.779 3.645-4.244 4.723-.617 1.43.967 1.347 1.213 1.001.248-.346 2.174-2.13 2.362-2.005.189.126-.709 1.623-1.233 2.859-.525 1.235 1.475 1.647 1.717 1.061s1.113-2.429 1.422-3.007c.31-.578 2.406-2.375 2.836-2.801.427-.427.824-1.746 1.072-2.093.248-.346 1.865-1.977 1.666-2.192-.219-.233-.852-.201-1.629-.026.024-.03.051-.063.072-.094.36-.545.893-1.143 1.452-1.691-.37-1.932-.565-4.248-.565-6.9 0-1.425-.836-2.77-1.621-3.852"/><path d="m1700.9973 79.0634c.559.548 1.09 1.146 1.451 1.691.02.031.047.064.07.094-.777-.175-1.41-.207-1.628.027-.2.214 1.419 1.845 1.666 2.191.248.347.646 1.666 1.072 2.093.43.426 2.525 2.223 2.836 2.801.31.578 1.181 2.421 1.424 3.007.242.586 2.242.174 1.716-1.061-.525-1.236-1.423-2.733-1.234-2.859.189-.125 2.115 1.659 2.361 2.005s1.83.429 1.213-1.001c-.465-1.078-2.605-3.329-4.244-4.723.037-.026.078-.044.109-.077 1.448-1.475.602-3.986-.693-5.727-.154-.205-.392-.488-.678-.824 3.704-2.385 6.137-7.543 8.891-9.726 2.533-2.009 4.287-2.714 6.08-2.673l-1.949 2.621 9.935-2.043-8.08-6.131.713 3.641c-3.312-.343-7.06 1.464-12.222 6.389-1.668 1.593-3.311 2.432-5.623 3 .015-.145.023-.287.023-.43 0-.867-.408-1.981-1.025-3.037-.784 1.082-1.62 2.427-1.62 3.852 0 2.652-.197 4.968-.564 6.9"/><path d="m1702.2375 55.9413c.814-1.833 3.156-7.534 2.887-7.67-.274-.136-3.362 2.58-4.922 4.548-.68-.34-2.647-.683-3.938-.683-1.289 0-3.257.343-3.937.683-1.561-1.968-4.649-4.684-4.92-4.548-.272.136 2.07 5.837 2.885 7.67 0 5.837-1.424 8.416-1.424 9.435 0 1.017 3.256 3.529 3.256 6.787 0 8.313 1.929 12.348 4.14 12.348 2.213 0 4.141-4.035 4.141-12.348 0-3.258 3.258-5.77 3.258-6.787 0-1.019-1.426-3.598-1.426-9.435"/><path d="m1517.0432 57.8856c-3.434 0-6.217 2.783-6.217 6.219 0 3.433 2.783 6.219 6.217 6.219 3.436 0 6.221-2.786 6.221-6.219 0-3.436-2.785-6.219-6.221-6.219m28.686.068c-2.012 1.825-8.065 7.319-11.594 10.575l-.666 2.041c.941 4.711 2.611 12.712 3.164 15.369.305 1.453.576 3.72-.469 4.48-1.043.76-3.119-.201-4.406-.935-2.225-1.274-8.674-4.963-12.912-7.35h-3.602c-4.24 2.387-10.689 6.076-12.912 7.35-1.289.736-3.361 1.695-4.408.935-1.043-.758-.772-3.027-.469-4.48.604-2.899 2.537-12.168 3.401-16.574-3.288-3.053-10.299-9.418-12.495-11.411-1.097-.998-2.65-2.672-2.252-3.9.399-1.229 2.641-1.672 4.116-1.832 2.201-.24 8.023-.875 12.685-1.406-.291-1.094-.578-2.364-.502-2.825l3.035-2.169c.528.089 1.905.974 2.909 1.658 2.002-4.387 4.701-10.383 5.677-12.555.61-1.353 1.721-3.348 3.014-3.348 1.291 0 2.404 1.995 3.014 3.348.978 2.172 3.675 8.168 5.679 12.555 1.002-.684 2.381-1.569 2.909-1.658l3.035 2.169c.076.461-.213 1.731-.502 2.825 4.66.529 10.482 1.166 12.685 1.406 1.475.16 3.719.603 4.117 1.832.401 1.227-1.156 2.902-2.251 3.9"/><path d="m1648.2922 52.704c-2.068-4.138-8.141-9.327-10.553-9.876-2.408-.553-8.332 4.61-12.861 3.936-1.92-.288-2.742-1.502-3.191-1.586-.276-.053-.944.224-1.381.871-.752-.282-1.278-.699-1.678-1.1.658-.725 1.105-1.647 1.213-2.705 4.525-.561 7.904-3.762 11.697-13.937-1.635.287-3.459 1.001-5.394 2.021 4.726-4.563 9.121-12.715 10.734-16.635-8.531 2.041-20.865 15.219-26.225 25.53-.07-.1-.142-.202-.213-.282-.285-.319-.709-.646-1.22-.952.752-.592 2.343-1.495 2.343-2.209 0-.751-1.283-2.659-1.568-4.929 1.035-1.581 2.584-4.418 2.385-4.621-.209-.207-3.307 1.311-5.002 2.008-.486-.332-1.045-.642-1.598-.879-.359-1.467-1.33-5.319-1.609-5.319-.287 0-1.256 3.852-1.613 5.319-.553.237-1.114.547-1.6.879-1.693-.697-4.793-2.215-4.998-2.008-.203.203 1.346 3.04 2.381 4.621-.283 2.27-1.567 4.178-1.567 4.929 0 .714 1.59 1.617 2.346 2.209-.514.306-.939.633-1.224.952-.069.08-.141.182-.211.282-5.36-10.311-17.696-23.489-26.227-25.53 1.613 3.92 6.01 12.072 10.732 16.633-1.937-1.018-3.755-1.732-5.39-2.019 3.793 10.175 7.17 13.376 11.697 13.937.106 1.058.553 1.98 1.211 2.705-.398.401-.922.818-1.674 1.1-.441-.647-1.109-.924-1.383-.871-.449.084-1.271 1.298-3.191 1.586-4.529.674-10.453-4.489-12.861-3.936-2.411.549-8.483 5.738-10.555 9.876-1.158 2.319-2.131 10.801-1.791 14.786 4.137-8.127 8.976-13.182 11.525-14.07 2.358-.82 5.248 3.097 6.088 3.125.846.027 4.537-5.291 7.463-5.336 1.688-.024 1.647.576 2.256.6.432.017 1.6-1.124 2.305-2.444.115-.012.232-.029.338-.064.306-.107 1.953-1.492 3.371-1.853.322-.083.541-.413.65-.976.367.092.74.155 1.115.155 1.162 0 2.192-.444 3.002-1.119.387 2.554 1.875 5.689 2.738 6.369-.591.697-.982 1.566-1.234 2.48-.584-1.104-1.586-1.687-3.211-1.687-.388 0-.742.056-1.076.156-.437-.796-.867-1.457-1.125-1.392-.277.074-.256 1.115-.178 2.069-.205.176-.386.376-.549.599-1.21-1.717-2.412-3.905-2.894-3.637-.586.324.322 7.571 1.488 10.028.793 1.679 2.106 2.704 3.617 2.95-.107.438-.246 1.014-.4 1.637-.998.152-2.457.729-2.789 1.676-.428 1.212-1.213 3.422-1.856 4.421-.642 1.001-5.062 6.564-5.775 9.06-.166.577-.18 1.234-.086 1.906-1.863 1.799-3.027 3.77-2.848 3.99.11.137 1.422-.568 3.694-1.362.267.532.574 1.01.902 1.411-.271 1.384-.445 5.065-.068 5.191.353.119 2.137-2.658 2.726-4.087.659-.046 1.454-.179 2.287-.371.114 1.239 1.024 3.751 1.264 3.751.242 0 .746-3.123.846-4.371 1.781-.633 3.346-1.519 3.693-2.493.781-2.212.071-11.983.283-13.484.217-1.498.858-2.78.858-3.42 0-.376-.352-.873-.922-1.265.311-.951.586-1.879.738-2.512.66-.281 1.196-.697 1.61-1.203 1.332 4.217 4.373 7.117 6.072 7.117 1.695 0 4.738-2.9 6.068-7.117.414.506.951.922 1.608 1.203.156.633.424 1.561.74 2.512-.572.392-.922.889-.922 1.265 0 .64.643 1.922.852 3.42.218 1.501-.496 11.272.289 13.484.347.974 1.914 1.86 3.693 2.493.096 1.248.604 4.371.846 4.371.24 0 1.148-2.512 1.26-3.751.837.192 1.634.325 2.291.371.589 1.429 2.373 4.206 2.728 4.087.375-.126.201-3.807-.066-5.191.322-.401.629-.881.894-1.411 2.274.794 3.588 1.499 3.699 1.362.178-.22-.984-2.191-2.849-3.99.092-.672.082-1.331-.082-1.906-.717-2.496-5.137-8.059-5.782-9.06-.64-.999-1.425-3.209-1.853-4.421-.332-.947-1.789-1.524-2.791-1.676-.154-.623-.293-1.199-.4-1.637 1.513-.246 2.824-1.271 3.619-2.95 1.166-2.457 2.07-9.704 1.49-10.028-.486-.268-1.686 1.92-2.895 3.637-.164-.223-.347-.423-.55-.599.078-.954.103-1.995-.178-2.069-.26-.065-.688.596-1.125 1.392-.332-.1-.686-.156-1.074-.156-1.625 0-2.631.583-3.211 1.687-.256-.914-.645-1.783-1.235-2.48.864-.68 2.35-3.815 2.737-6.369.81.675 1.84 1.119 3.002 1.119.375 0 .748-.063 1.115-.155.113.563.326.893.648.976 1.42.361 3.069 1.746 3.373 1.853.106.035.219.052.34.064.705 1.32 1.871 2.461 2.303 2.444.609-.024.568-.624 2.258-.6 2.922.045 6.615 5.363 7.459 5.336.843-.028 3.732-3.945 6.09-3.125 2.548.888 7.388 5.943 11.523 14.07.34-3.985-.633-12.467-1.791-14.786"/><path d="m1418.3459 42.3881c-.512-.559-5.138-4.684-5.863-5.444-.765-.803-1.737-1.969-2.555-3.146-.007-.053-.012-.093-.011-.108.009-.054.669-.48.672-.545.001-.064-.296-.369-.295-.419.002-.049.458-.401.462-.462.004-.059-.31-.31-.316-.37-.007-.061.488-.639.484-.719-.004-.081-.922-.594-.965-.687-.008-.017-.009-.13-.01-.273.05-.225.049-.479-.011-.741-.005-.072-.011-.129-.021-.145-.006-.009-.015-.021-.032-.033-.004-.017-.007-.034-.015-.051-.103-.282-.264-.52-.454-.695-.02-.295-.044-.648-.086-.688-.069-.068-.632-.023-.713-.084-.08-.061-.037-.697-.084-.755-.044-.058-.578.369-.661.342-.084-.027-.728-1.032-.807-1.054-.076-.024-.246.331-.334.335-.089.003-1.007-.597-1.091-.587-.083.01-.208.366-.293.377-.084.012-1.419-.5-1.552-.461-.132.039-.369.842-.461.881-.092.037-1.023-.313-1.133-.252-.108.061-.127.512-.25.587-.125.075-.584-.042-.671.042-.087.083-.2 1.063-.251 1.132-.054.07-1.043.841-1.091.923-.047.081.233.407.167.545-.065.138-.878.822-.88.922-.004.101.34.389.335.545-.004.157-.18.396-.167.534.013.137.51.406.502.514-.004.11-.246.346-.251.461-.003.117.13.483.126.588s-.146.472-.126.587.556.494.587.587c.031.092.011.443.043.504.031.06.535.147.587.209.05.061-.059.791 0 .881.058.089.818.152.881.209.061.057.045.403.125.461.079.059.456-.066.503-.041.047.024.203.551.293.587.045.017.208-.044.373-.11-.248 3.141-.792 6.541-2.073 9.569-.298.036-.544.054-.615.022-.208-.095-.345-1.486-.447-1.514-.106-.027-2.318.807-2.426.807-.108-.001-.979-.751-1.062-.731-.085.02-.974 1.25-1.054 1.271-.081.02-.692-.434-.761-.403-.067.034-.235.532-.328.554-.028.008-.148-.064-.297-.161-1.236-2.989-1.767-6.326-2.01-9.414.165.066.329.127.373.11.091-.036.246-.563.293-.587.049-.025.425.1.504.041.079-.058.064-.404.126-.461s.821-.12.881-.209c.058-.09-.051-.82 0-.881.051-.062.555-.149.586-.209.032-.061.012-.412.043-.504.031-.093.566-.472.588-.587.019-.115-.122-.482-.127-.587-.004-.105.13-.471.127-.588-.006-.115-.247-.351-.253-.461-.007-.108.49-.377.504-.514.012-.138-.163-.377-.169-.534-.004-.156.34-.444.336-.545-.003-.1-.816-.784-.881-.922s.216-.464.168-.545c-.048-.082-1.037-.853-1.091-.923-.053-.069-.163-1.049-.25-1.132-.088-.084-.547.033-.672-.042-.123-.075-.141-.526-.251-.587-.109-.061-1.041.289-1.133.252-.091-.039-.328-.842-.461-.881-.131-.039-1.466.473-1.551.461-.085-.011-.21-.367-.293-.377s-1.003.59-1.091.587c-.087-.004-.258-.359-.334-.335-.079.022-.724 1.027-.807 1.054-.084.027-.616-.4-.662-.342s-.005.694-.084.755c-.08.061-.643.016-.714.084-.04.04-.064.393-.085.688-.189.175-.35.413-.454.695-.008.017-.01.034-.014.051-.016.012-.027.024-.032.033-.01.016-.016.073-.021.145-.061.262-.062.516-.011.741-.001.143-.002.256-.012.273-.042.093-.96.606-.964.687-.003.08.492.658.485.719-.005.06-.32.311-.317.37.004.061.46.413.462.462.001.05-.296.355-.294.419.003.065.663.491.672.545.001.015-.005.055-.011.108-.818 1.177-1.789 2.343-2.555 3.146-.726.76-5.351 4.885-5.862 5.444-.65.712-1.096 1.979-1.216 2.993-.049.414.17.559.462.34.147-.111 2.15-1.554 3.747-2.989 1.548-1.391 2.682-2.762 3.432-3.534.935-.324 2.774-1.849 3.86-2.807.069.09.233.615.28.654.051.042.833-.151.882-.126.048.026.382.741.461.755s.518-.544.587-.545c.067-.001.516.355.622.375.385 2.957.977 6.387 2.05 9.409-.096.15-.259.441-.324.482-.082.055-1.06-.352-1.133-.274-.074.079-.101 1.671-.185 1.738-.083.067-1.399-.175-1.479-.03-.079.144.278.748.248.846-.032.097-.614.219-.677.296-.063.078-.196.922-.244 1.003-.05.081-.983.323-.993.408-.01.086.537.897.505.999-.032.104-1.001.665-.997.756.004.089.738.501.745.591.009.091-.959 1.258-.964 1.375-.005.116 1.153.839 1.145.929-.009.09-1.008.673-.999.755.011.082.528.343.548.424.018.081-.484.674-.459.774.022.099.953.632.967.724.014.093-.739 1.104-.723 1.219.015.114.825.46.862.562.036.103-.182 1.115-.126 1.222.056.105 1.101.171 1.135.273.035.104-.364.81-.312.864.051.054.913.034.97.127.058.095.011 1.814.077 1.893.065.077 1.068-.073 1.154-.016.087.06.629 1.217.72 1.227.08.009 1.084-.443 1.366-.493-.214 1.529-.521 4.106-.707 5.065-.213 1.087-1.906 7.086-2.245 7.85-.142.314-.629 1.231-1.405 1.597-1.318.627-3.177.93-4.009.83-.397-.046-.521.227-.543.535-.258.046-.541.194-.766.39-.475.413-.753.995-.707 1.081.055.099.531-.233 1.54-.206.04.311.164.616.547.496.45-.141 1.266-.929 1.633-1.013.366-.086 1.154-.324 1.21.055.141.958-3.181 3.997-3.435 4.336-.154.205-.191.704-.065 1.221-.182.274-.366.625-.441.992-.152.741.038 1.489.257 1.507.193.014.562-.616.766-.775.185-.147.394-.211.509-.359.229.013.396-.137.523-.249.225-.198.76-1.859 1.211-2.337.449-.478 2.053-2.364 2.364-2.674.56-.56 1.142-.664 1.605.056.148.23.695 1.199 1.21 2.308.364.787.727 1.789.844 1.998.158.285.459.625.807.825.091.361.349.59.575 1.085.271.598.446 1.34.595 1.3252238.119-.0122238.424-1.7712238.347-2.8702238.089-.216.108-.501.069-.927-.084-.929-.711-.813-.907-1.292-.198-.478-.71-1.672-.851-2.009-.142-.338-1.098-1.597-1.182-1.906.339-.034.677-.034 1.641.063.562.058 1.395.244 1.688.221.336-.027.632-.049.788-.3.745.102 1.092.365 1.145.283.053-.081-.184-.682-.625-1.13-.139-.141-.307-.262-.477-.348-.081-.258-.284-.452-.831-.475-.646-.029-1.384.163-1.89.163-.508 0-1.763-.506-1.96-.9-.198-.395-.235-1.07-.11-1.626.097-.431 1.228-3.829 1.951-5.847.225-.632.551-1.215.645-1.584.128-.5.151-.861.283-1.471.153-.703.312-1.467.456-2.192.641-.189 1.54-.478 1.618-.454.119.037.231.551.304.58.074.029.677-.524.845-.496.166.028.493 1.261.578 1.291.088.033 1.019-1.531 1.112-1.536.094-.002.405.574.459.574.049 0 .415-.511.548-.626.177.907.387 1.935.588 2.859.132.61.155.971.282 1.471.094.369.42.952.646 1.584.723 2.018 1.854 5.416 1.95 5.847.125.556.089 1.231-.109 1.626-.197.394-1.452.9-1.959.9s-1.245-.192-1.892-.163c-.548.023-.75.217-.83.475-.17.086-.339.207-.477.348-.442.448-.677 1.049-.624 1.13.052.082.399-.181 1.145-.283.154.251.45.273.786.3.293.023 1.125-.163 1.689-.221.964-.097 1.301-.097 1.64-.063-.083.309-1.04 1.568-1.181 1.906-.141.337-.654 1.531-.851 2.009-.196.479-.823.363-.907 1.292-.039.426-.022.711.068.927-.076 1.099.228 2.858.348 2.8702238.148.0147762.324-.7272238.595-1.3252238.226-.495.484-.724.575-1.085.347-.2.648-.54.806-.825.117-.209.481-1.211.844-1.998.515-1.109 1.063-2.078 1.211-2.308.463-.72 1.045-.616 1.605-.056.309.31 1.915 2.196 2.364 2.674.452.478.985 2.139 1.211 2.337.127.112.294.262.522.249.115.148.325.212.51.359.203.159.573.789.767.775.217-.018.408-.766.255-1.507-.075-.367-.257-.718-.44-.992.126-.517.088-1.016-.064-1.221-.255-.339-3.577-3.378-3.435-4.336.055-.379.844-.141 1.209-.055.366.084 1.183.872 1.633 1.013.384.12.508-.185.547-.496 1.008-.027 1.485.305 1.54.206.046-.086-.233-.668-.707-1.081-.224-.196-.508-.344-.766-.39-.022-.308-.145-.581-.543-.535-.832.1-2.691-.203-4.009-.83-.775-.366-1.263-1.283-1.405-1.597-.339-.764-2.031-6.763-2.244-7.85-.164-.84-.42-2.927-.626-4.46.312.103.657.219.698.187.074-.057.152-.962.209-1.025.056-.061.54-.098.588-.149.048-.05-.004-.789.063-.861.066-.071 1.286.07 1.347.002.059-.07-.095-1.028-.036-1.119.059-.09.812-.531.852-.593.038-.062-.173-1.019-.116-1.067.057-.046 1.145-.135 1.205-.181.063-.048-.047-.794.048-.92.099-.132.978-.453.998-.505.012-.032-.719-1.536-.707-1.632.012-.097.483-.639.47-.7-.012-.059-.674-.494-.674-.59s1.072-.834 1.093-.913c.021-.078-1.352-1.842-1.297-2.018.054-.176.454-.532.467-.619.015-.088-.27-.364-.252-.5.017-.137.514-.464.52-.539.006-.078-.445-.268-.428-.455.015-.187.44-.628.416-.701-.025-.073-1.3-.594-1.462-.817-.161-.225-.083-1.195-.138-1.28s-1.867-.625-1.968-.72c-.102-.094.375-.841.298-.921-.065-.065-1.146-.066-1.638-.115 1.195-3.144 1.832-6.808 2.24-9.937.104-.02.554-.376.621-.375.069.001.509.559.586.545.081-.014.415-.729.462-.755.049-.025.831.168.882.126.046-.039.211-.564.28-.654 1.086.958 2.925 2.483 3.859 2.807.751.772 1.885 2.143 3.433 3.534 1.598 1.435 3.599 2.878 3.748 2.989.291.219.511.074.462-.34-.121-1.014-.567-2.281-1.216-2.993"/><path d="m1449.2678 58.3197c.174-.061 1-4.041 1.312-3.979.314.063-.103 5.613-.416 5.674-.159.033-1.141-.412-2.063-.913-.162.433-.428 1.272-1.005 1.288-2.682.084-5.858.112-9.037-.275-1.536-.186-2.416-1.22-2.736-2.715-.341-1.588-.702-7.146-.746-8.575 0 0 14.528 9.552 14.691 9.495m5.537-3.979c.314-.062 1.141 3.918 1.315 3.979.164.057 14.691-9.495 14.691-9.495-.046 1.429-.405 6.987-.746 8.575-.321 1.495-1.2 2.529-2.737 2.715-3.179.387-6.357.359-9.036.275-.579-.016-.844-.855-1.006-1.288-.922.501-1.903.946-2.063.913-.313-.061-.729-5.611-.418-5.674m18.43-7.524c1.288-1.181-.391-3.444-4.593-4.338-4.45-3.334-9.96-5.333-15.948-5.333-5.989 0-11.498 1.999-15.948 5.333-4.203.894-5.882 3.157-4.594 4.338-3.818 4.612-6.114 10.529-6.114 16.983 0 14.722 11.935 26.656 26.656 26.656 14.72 0 26.656-11.934 26.656-26.656 0-6.454-2.298-12.371-6.115-16.983"/><path d="m1445.4475 56.4291c0 1.03-.334 1.866-.746 1.866-.411 0-.746-.836-.746-1.866 0-1.031.335-1.867.746-1.867.412 0 .746.836.746 1.867"/><path d="m1459.9397 56.4291c0 1.03.335 1.866.745 1.866.412 0 .746-.836.746-1.866 0-1.031-.334-1.867-.746-1.867-.41 0-.745.836-.745 1.867"/><path d="m50.9866 24.0126c-.166 3.729-1.435 10.092-5.128 10.285-1.021.062-1.964-.325-2.684-1.116-1.707-1.87-1.868-5.588-1.488-8.203.819-5.619 2.623-6.511 3.625-6.542l.05-.001c.526 0 .984.207 1.36.612.922.991 1.252 3.2.911 6.059-.161 1.332-.609 2.639-1.133 4.087-.059.164-.188.266-.337.266-.103 0-.203-.051-.268-.137-.075-.1-.091-.231-.048-.369.401-1.293.661-2.64.778-4.006.254-3.016-.133-4.818-1.061-4.946-.026-.004-.053-.007-.079-.007-.743 0-1.739 1.366-2.296 5.203-.431 2.966.012 5.765 1.107 6.961.413.456.89.662 1.483.625 2.426-.128 3.537-5.356 3.693-8.839.182-4.13-.714-9.1-3.849-9.505-.961-.124-1.915.179-2.838.895-2.088 1.617-3.635 5.014-4.137 9.084-.53 4.297-.066 8.79 1.274 12.322.009.026.009.053.003.08-.164.585-.389 1.156-.671 1.698-.022.042-.065.067-.114.067-.055.009-.093-.028-.113-.074-1.803-3.907-2.506-9.246-1.885-14.28.551-4.462 2.313-8.237 4.713-10.097 1.227-.952 2.618-1.371 3.965-1.2 4.148.539 5.391 6.076 5.167 11.078m1.675-.106c.254-19.546-12.192-23.297-21.096-23.297-14.783 0-22.215 11.417-21.605 31.23.044 1.412-1.58 1.986-1.726 4.205-.075 1.116.435 2.456 1.443 4.123-2.567-1.323-4.516-5.615-3.025-9.958.171-.497-.251-.764-.741-.457-3.618 2.282-4.957 9.632-1.331 13.739-2.197.526-3.872-.345-3.978.085-.183.759 1.932 3.249 5.147 3.588-1.901.919-3.694.9-3.744 1.353-.106.968 4.199 3.273 8.972 1.068-1.681 1.948-2.879 2.323-2.741 2.953.15.69 4.085.909 7.519-2.134-1.155 1.753-2.217 2.477-1.971 2.997.324.684 4.811.149 7.556-4.277 2.129 4.613 6.741 5.336 7.167 4.707.324-.475-.667-1.332-1.579-3.224 3.229 2.985 7.262 3.209 7.487 2.578.22-.624-1.213-1.134-2.834-3.403 3.801 2.803 8.711 2.285 9.162 1.32.189-.405-1.463-.988-3.125-2.366 4.68.944 8.871-1.181 8.861-2.274-.006-.619-2.836-.117-5.502-1.536 1.512-1.574 2.379-3.278 2.75-4.96 4.113-1.17 8.799-5.699 8.934-16.06" mask="url(#a)" transform="translate(1832 37)"/><path d="m436.5393 85.5204c-.602-1.016-2.01-2.241-2.01-2.241s-.932-2.939-2.017-4.452c-1.101-1.536-2.746-2.715-2.746-2.715s4.677-3.107 4.884-3.814c.207-.708.242-2.231-1.915-6.82-1.384-2.945-5.266-5.022-5.266-5.022.317-2.125-.572-5.573-1.884-6.088s-3.448.99-5.586 2.798c0 0-7.627-1.529-14.728.449 0 0-3.084-3.026-6.266-2.401 0 0-1.412 1.218-1.64 4.711 0 0-15.582 6.535-15.509256 18.877.022256 3.543 4.068256 6.89 4.068256 6.89l.887 3.65 3.047-1.497 1.196 2.84 2.748-2.309 2.417 1.939 2.563-4.842 1.71 1.529 1.094 2.943 2.523-.999c.197 1.014 2.826 1.445 2.826 1.445l1.161-2.199c1.514.618 3.419.504 3.419.504l-1.699-3.454 4.87-1.385c.392 1.926 1.759 4.285 1.759 4.285l2.166-.918 1.569 1.627 1.367-1.912 1.816 1.328 1.435-2.926 1.807 2.239c.098.711 1.726 3.101 1.726 3.101l1.909-1.761c.401.611 3.202 1.416 3.202 1.416l.924-2.612 2.563-.077s.212-1.111-.39-2.127"/><path d="m395.3137 58.4462c.513-3.238 1.938-4.633 2.251-4.902l.442-.382.573-.112c3.067-.603 5.825 1.056 7.251 2.149 2.271-.523 4.535-.737 6.583-.789.304-1.594.022-3.189-.788-4.817-2.799-5.628-10.623-8.453-16.014-6.383-1.113.428-2.068.266-2.64-.517-.414-.565-2.141-2.089-3.023-1.651-1.617.804-.914 2.693-.914 2.693-.245-.49-1.738-2.493-2.915-1.908-1.175.585-.478 2.985-.235 3.474 0 0-1.082-1.699-2.701-.894-.882.437-.707 2.736-.506 3.405.279.93-.168 1.789-1.181 2.42-4.904 3.048-7.373 10.992-4.574 16.619 1.034 2.078 2.538 3.442 4.655 4.025 3.506-6.863 10.839-11.005 13.736-12.43"/><path d="m78.0891 37.0429c-4.836-9.834-14.833-17.573-15.961-16.767s.483 3.547.483 6.61c0 3.064-1.128 21.281-16.444 25.635 0 0 .322-7.094 0-9.512 0 0 4.031-2.902 4.031-4.836l2.741 1.773 2.418-.806s-3.063-2.742-3.87-4.032c-.806-1.289-2.418-4.998-4.03-5.642-1.612-.645-7.094-1.289-7.094-1.289l-5.482-7.578-4.406.914s1.437 1.629 3.05 3.943c-.739.829-1.235 1.838-1.304 2.801 0 0 1.354-.672 2.56-.891 1.733 2.792 3.28 6.094 3.157 8.817-3.051-3.127-8.191-9.545-8.968-11.876-.86-2.579-.86-6.663-.538-9.136.323-2.473 2.58-9.028.538-11.501 0 0 0 5.481-1.72 6.233 0 0-3.439-9.242-9.243-9.78 0 0 5.159 5.053 3.976 9.243 0 0-2.579-6.233-14.832-7.953 0 0 5.051 2.688 6.556 9.459 0 0-.752-1.076-1.934-1.397-1.183-.324-2.903-1.076-3.547-3.118 0 0-1.613 7.954 7.631 11.716 0 0-4.837.645-6.019-.537 0 0 1.612 3.44 5.267 4.298 3.654.86 7.524 0 11.178 3.655 2.923 2.924 8.793 8.862 11.03 11.126-1.192-.532-4.283-1.686-8.259-1.659-.873-.743-1.992-2.668-1.992-2.668-.218.725-.364 1.895-.391 2.83-.793.106-1.601.246-2.431.475l2.043 2.686s8.706-2.042 11.608 3.87c0 0-1.934 5.912-5.589 10.426 0 0-13.436-3.439-13.865-27.838 0 0-6.987-.107-13.435 16.659-6.45 16.767-4.408 25.259-4.408 25.259l3.44-1.828.322-2.9s7.094-6.235 9.136-7.526c0 0 5.374 2.795 12.038 4.409 0 0-1.075 1.396-1.504 2.685l-3.87.969-1.827-2.15v-1.829s-.967-1.396-1.505-1.504c0 0-1.559 0-2.203.27 0 0-.591-.323-.86-.43 0 0-1.505.752-1.934 1.342 0 0 .054 1.075.16 1.559 0 0-.106 1.021-.106 1.72 0 0 .913 1.666 1.45 2.257 0 0 .967 0 1.397-.108 0 0 1.559-.428 1.774-.59 0 0 2.633 3.17 3.117 3.492 0 0 2.956 0 6.771-1.719 0 0-.073.334-.168.903-2.551 2.049-8.968 8.14-8.968 11.834 0 2.795 2.365 5.482 2.365 5.482s-3.977 1.827-4.944 5.373l4.084-.644s-1.183 3.009-1.183 3.869l7.31-3.117s.859 2.902 1.504 3.224c0 0 1.29-1.935 1.827-2.58.538-.644 1.183-1.611 1.183-2.686 0-1.076-.968-1.72-.968-1.72s.835-1.086 1.569-2.295c1.642 1.326 3.859 2.188 6.922 2.188 3.057 0 5.371-.739 7.153-1.901l1.554 2.008s-.108 1.828.215 2.58c.322.752 3.224 4.084 3.224 4.084s1.29-2.042 1.29-3.869c0 0 5.481 2.473 6.771 3.654 0 0-.108-2.364-.752-3.762 0 0 3.117.645 3.762 1.182 0 0-.753-3.01-4.192-5.267 0 0 .682-1.622 1.188-3.198 9.609-1.646 11.603-12.172 11.603-12.172 13.434-3.331 7.739-17.627 7.739-17.627.752 4.3-1.935 7.416-1.935 7.416s-2.473 2.688-.108-.322c2.364-3.01-.537-11.178-.537-11.178-1.075 5.59-5.159 6.879-5.159 6.879-.431-1.935 1.612-4.837 1.612-4.837-7.095 4.622-6.019 10.64-6.019 10.64-.753-.752-1.29-1.719-1.29-1.719-1.505 7.954 2.579 9.244 2.579 9.244-.645 1.827-1.719 3.118-3.439 4.299-1.448.996-4.955 1.065-8.402.166-1.486-1.847-3.328-3.674-5.42-5.09-.153-.406-.312-.762-.473-.988 0 0 4.326 2.123 4.81 2.528l5.482-2.42s1.208.564 1.692.484.887-.806 1.21-1.209c.167-.209.327-.375.45-.53-.307-1.034-.457-2.337-.393-3.906-.148-.125-.294-.265-.461-.32-.483-.162-1.532.242-1.853.242-.324 0-.645-.323-1.13-.242-.483.08-1.773.887-1.773 1.289 0 .404.161.887.161.887l-3.385.807-1.774-2.418s6.884-1.711 10.899-3.799c.244-.305.557-.547.961-.613.032-.004.062.005.092.015.026-.017.054-.032.078-.048.567-2.483 2.174-5.819 6.518-8.648.647-.423 1.5-.325 2.037.229.136.14.241.299.315.468.196-.507.369-1.059.491-1.694.137-.715.737-1.248 1.462-1.303s1.397.382 1.641 1.067c.171.484.545 1.636.884 3.05.709-.078 1.402.295 1.674.977.121.306 2.947 7.551-.081 13.449-.02.039-.052.07-.072.107.282.248.531.483.697.692 0 0 0 3.117-.107 4.191 0 0 2.472.861 3.117 1.506 0 0 5.059-15.342-3.44-32.622" mask="url(#b)" transform="translate(278)"/><path d="m637.9592 74.0824c-1.527-1.525-3.704-2.44-5.82-2.438-3.483 0-5.854 1.336-7.789 2.705.982-1.912 1.544-4.03 1.544-6.27 0-2.686-.796-5.203-2.175-7.389 3.18-2.491 5.098-5.73 5.098-5.73 2.093-.054 4.051-1.238 4.051-1.238l-2.362-1.592.933-2.131-2.82.025-.803-2.613c-1.089 1.118-1.982 4.237-1.982 4.237s-4.705 1.703-7.945 3.616c-.06-.034-.121-.065-.183-.098 2.108-1.947 3.412-4.59 3.412-7.508 0-5.979-5.448-10.828-12.169-10.828-6.72 0-12.168 4.849-12.168 10.829 0 2.918 1.302 5.56 3.41 7.507-.062.034-.126.067-.188.101-3.24-1.914-7.952-3.619-7.952-3.619s-.894-3.119-1.983-4.237l-.802 2.614-2.82-.026.932 2.131-2.361 1.592s1.959 1.183 4.051 1.238c0 0 1.92 3.246 5.106 5.738-1.376 2.183-2.169 4.698-2.169 7.381 0 4.461 2.183 8.458 5.633 11.223l-.479-.155c-.326 3.814.653 7.625.653 7.625-1.633 2.068-1.306 3.704-1.306 3.704 1.96.218 4.03-1.09 4.03-1.09.108.98 1.634 2.613 1.634 2.613 1.307-.98 1.851-2.396 1.851-2.396 1.525 1.416 4.03.98 4.03.98-.327-1.197-1.198-2.831-1.198-2.831s.071-3.14.098-4.683c.657.069 1.321.115 1.998.115s1.342-.046 1.998-.115c.027 1.543.099 4.683.099 4.683s-.872 1.634-1.198 2.831c0 0 2.505.436 4.03-.98 0 0 .544 1.416 1.852 2.396 0 0 1.524-1.633 1.633-2.613 0 0 2.07 1.306 4.031 1.089 0 0 .326-1.635-1.308-3.703 0 0 .507-1.98.669-4.51.708.774 1.609 1.453 2.238 1.881-.186-.643-.398-1.496-.398-2.046 0-4.067 4.394-6.8 8.498-6.8 1.819 0 3.395.617 4.56 1.781 1.156 1.156 1.847 2.813 1.847 4.43 0 1.176-.443 2.265-1.248 3.069-.857.859-2.032 1.312-3.395 1.312-1.231 0-2.28-.4-3.038-1.158-.76-.76-1.213-1.891-1.213-3.027 0-.029.002-.077.006-.167.005-.124.011-.293.011-.409 0-.42.339-1.042 1.068-1.044.284 0 .53.096.712.279.232.232.316.563.315.797 0 .122-.004.221-.009.3-.003.066-.007.123-.007.174.014.851.483 2.291 2.155 2.291 1.665 0 2.742-.925 2.742-2.351 0-1.141-.445-2.239-1.221-3.015-.804-.804-1.941-1.23-3.285-1.231-2.532.001-4.12 1.211-4.842 1.933-.869.868-1.43 1.956-1.43 2.77 0 1.509.466 2.74 1.387 3.659 1.152 1.154 3.207 2.578 5.55 2.578 3.347 0 8.449001-2.948 8.449001-8.671.000999-2.138-.777001-4.044-2.248001-5.515"/><path d="m203.1672 76.8075-1.913-2.628c.496-1.793.767-3.681.767-5.634 0-3.226-.726-6.283-2.022-9.017.28-.512.491-1.131.614-1.853l1.2-7.017c.625-3.651-1.709-5.59-5.185-4.309l-6.667 2.459c-.276.103-.532.216-.771.338-2.532-1.077-5.317-1.673-8.242-1.673-4.556 0-8.1 3.628-8.1 7.347 0 4.368 3.169 7.875 7.2 7.875 2.329 0 4.688-1.413 4.688-4.117 0-2.175-1.069-3.6-2.25-3.6-.994 0-1.857.698-2.438 1.642-.506-1.979.919-3.441 2.438-3.441 1.912 0 3.619 1.093 4.341 3.13.992-.221 2.258-.566 3.042-1.316 0 0 .47 2.471-2.684 3.441.002.049.007.094.007.144 0 3.938-3.975 6.337-7.144 6.337-5.982 0-9.656-4.049-9.656-10.095 0-2.125.811-4.143 2.09-5.781-.174-.081-.354-.16-.547-.231l-6.667-2.459c-3.476-1.281-5.809.658-5.185 4.309l1.2 7.017c.124.722.335 1.341.615 1.853-1.296 2.734-2.023 5.791-2.023 9.017 0 1.953.271 3.841.767 5.634l-1.913 2.628c-2.001 2.748-.926 4.383 2.39 3.634l2.119-.48c1.032 1.598 2.272 3.048 3.684 4.308-3.629.227-6.43 1.662-6.43 3.403 0 1.897 3.326 3.437 7.428 3.437 3.285 0 6.067-.988 7.047-2.356 1.897.561 3.903.867 5.981.867 2.079 0 4.084-.306 5.981-.867.981 1.368 3.762 2.356 7.047 2.356 4.102 0 7.428-1.54 7.428-3.437 0-1.741-2.8-3.176-6.43-3.403 1.413-1.26 2.652-2.71 3.684-4.308l2.12.48c3.315.749 4.39-.886 2.389-3.634"/><path d="m707.0232 38.7245c-.902-.368-20.978 11.996-21.127 12.472-.186.596 5.34 14.723 5.475 15.352-1.942.954-6.73 3.273-6.863 3.622-.124.321 2.15 4.448 3.406 6.451-.818.599-2.049 1.435-3.339 2.291-.127-5.045-1.217-9.73-3.251-14.651 2.186-1.275 3.689-4.607 3.703-6.573.02-2.909-.766-5.41-2.194-7.413 8.459-5.551 12.359-13.98 11.626-15.052-.695-1.022-9.434 2.217-16.932 10.958-1.937-.8-4.177-1.243-6.659-1.261-2.482-.017-4.727.394-6.676 1.168-7.375-8.847-16.066-12.205-16.777-11.194-.748 1.063 3.034 9.546 11.416 15.215-1.456 1.982-2.278 4.471-2.298 7.381-.013 1.964 1.443 5.318 3.611 6.622-2.279 5.301-3.459 10.335-3.498 15.87-.016 2.336.854 4.895 2.235 6.173-2.031 1.375-3.946 4.251-2.217 3.479-.154.481-.095.783.116.923.2.131.693.109 1.149-.161-.596 1.071 3.04-.055 5.534-2.359 1.936.013 4.785-.953 7.11-.936 2.327.017 5.161 1.02 7.096 1.034 2.464 2.339 6.085 3.518 5.502 2.438.452.275.945.304 1.148.176.212-.136.276-.438.127-.922 1.718.798-.158-2.104-2.167-3.509.814-.733 1.453-1.905 1.855-3.214 4.235-1.601 9.474-3.838 9.572-4.326.072-.369-2.145-4.591-3.284-6.168.882-.346 7.544-2.63 7.696-2.92.142-.267-2.301-8.348-2.403-8.76 3.566-1.219 11.021-3.641 11.305-3.915.311-.302.75-17.989.003-18.291"/><path d="m756.0237 82.1674c1.381 0 2.678.536 3.652 1.513.032.029.051.066.082.095 1.151-2.041 1.823-4.383 1.823-6.894 0-7.791-6.315-14.108-14.106-14.108s-14.107 6.317-14.107 14.108c0 2.509.674 4.851 1.824 6.89.939-.986 2.266-1.604 3.732-1.604 1.381 0 2.678.536 3.653 1.513.974.975 1.513 2.272 1.513 3.651 0 1.072-.334 2.091-.937 2.952 1.363.444 2.808.705 4.322.705 1.512 0 2.959-.261 4.322-.705-.603-.861-.937-1.88-.937-2.952 0-2.849 2.316-5.164 5.164-5.164"/><path d="m714.5706 85.2035c0 .621.51 1.131 1.133 1.131h8.765c2.026 0 4.957-.236 7.008-2.289 2.084-2.082 2.324-5.086 2.324-7.164s-.24-5.082-2.324-7.164c-2.051-2.052-4.982-2.289-7.008-2.289h-8.765c-.623 0-1.133.509-1.133 1.13v3.556c0 .622.51 1.13 1.133 1.13h8.765c2.01 0 2.676.367 2.895.586.23.232.619.935.619 3.051 0 3.365-.531 3.636-3.514 3.636h-8.765c-.623 0-1.133.508-1.133 1.13z"/><path d="m780.3772 81.6478c0-.622-.508-1.13-1.131-1.13h-8.765c-2.01 0-2.676-.367-2.895-.586-.232-.232-.621-.935-.621-3.051 0-2.115.389-2.818.621-3.05.219-.219.885-.586 2.895-.586h8.765c.623 0 1.131-.508 1.131-1.13v-3.556c0-.621-.508-1.131-1.131-1.131h-8.765c-6.368 0-9.333 3.004-9.333 9.453 0 2.079.243 5.082 2.325 7.164 2.05 2.053 4.98 2.29 7.008 2.29h8.765c.623 0 1.131-.51 1.131-1.131z"/><path d="m741.3186 86.9232c-.045-.024-.506-.044-1.025-.044-.518 0-.942-.426-.942-.943 0-.52-.021-.982-.045-1.026-.025-.045-.242-.082-.351-.082-.108 0-.241.017-.295.037-.053.02-.098.551-.098 1.071 0 .517-.426.943-.943.943-.52 0-.981.02-1.026.044s-.082.241-.082.351c0 .107.018.241.037.295.02.053.551.098 1.071.098.517 0 .943.425.943.943 0 .519.02.981.045 1.025.023.045.24.082.348.082.109 0 .242-.017.297-.037.054-.02.099-.551.099-1.07 0-.518.424-.943.942-.943.519 0 .98-.02 1.025-.045.045-.024.082-.241.082-.348 0-.11-.037-.327-.082-.351m-5.658.408c0-1.804 1.461-3.263 3.263-3.263 1.803 0 3.266 1.459 3.266 3.263s-1.463 3.266-3.266 3.266c-1.802 0-3.263-1.462-3.263-3.266"/><path d="m753.5491 87.2738c0 .107.037.324.082.349.045.024.506.045 1.023.045.52 0 .946.424.946.942 0 .519.043 1.051.097 1.07.055.021.188.037.295.037.11 0 .327-.037.352-.082.023-.044.043-.506.043-1.025 0-.518.424-.942.943-.942.52 0 1.051-.045 1.069-.099.021-.054.037-.188.037-.295 0-.109-.037-.326-.082-.351-.043-.024-.504-.044-1.024-.044-.519 0-.943-.425-.943-.943 0-.519-.043-1.051-.098-1.07-.054-.021-.187-.037-.297-.037-.107 0-.326.037-.349.082-.026.044-.043.506-.043 1.025 0 .518-.426.943-.946.943-.517 0-.978.02-1.023.044-.045.025-.082.242-.082.351m2.475 3.323c-1.803 0-3.264-1.462-3.264-3.265 0-1.804 1.461-3.264 3.264-3.264 1.804 0 3.265 1.46 3.265 3.264 0 1.803-1.461 3.265-3.265 3.265"/><path d="m749.3596 61.7445c.447 0 .809-.361.809-.807 0-.447-.362-.809-.809-.809h-3.771c-.446 0-.807.362-.807.809 0 .446.361.807.807.807z"/><path d="m749.3596 59.0521c.447 0 .809-.362.809-.808 0-.447-.362-.808-.809-.808h-3.771c-.446 0-.807.361-.807.808 0 .446.361.808.807.808z"/><path d="m749.3596 56.3598c.447 0 .809-.361.809-.809 0-.445-.362-.807-.809-.807h-3.771c-.446 0-.807.362-.807.807 0 .448.361.809.807.809z"/><path d="m747.4749 53.6566c4.617 0 5.168-.449 5.168-1.026 0-1.103-2.313-1.995-5.168-1.995-2.854 0-5.17.892-5.17 1.995 0 .577.553 1.026 5.17 1.026"/><path d="m920.3982 50.5292c-.139 1.725-1.811 3.649-3.84 5.981-2.031 2.331-6.074 4.067-7.848 4.576-1.498.428-4.371 1.748-6.376 3.422 1.093 1.598 1.593 3.365 1.705 4.642.058.67-.243 1.306-.762 1.696.613 3.267-1.01 6.302-2.358 7.807-.261.291-.595.482-.957.572.073.65.12 1.348.12 2.088 0 1.903-.44 3.528-1.301 4.863 2.611.328 6.551-.495 12.238-3.872 12.643-7.505 9.379-31.775 9.379-31.775"/><path d="m894.9314 81.539c-.15.068-.309.111-.467.139-.877 1.37-1.826 2.393-2.004 2.579-.625.661-1.631.794-2.406.316-.041-.025-.076-.057-.117-.085-.902.879-1.932 1.755-2.863 2.504-.647.524-1.555.571-2.254.119-.653-.418-.975-1.186-.848-1.938-.012-.058-.031-.122-.066-.201-.313.301-.719.498-1.164.538-.776.068-1.514-.336-1.877-1.024-.204-.387-1.598-.924-2.522-1.278-.572-.22-1.16-.447-1.758-.714-.838-.374-1.552-.99-2.158-1.679-.014.009-.027.016-.041.027-.004.154-.008.312-.008.471 0 3.243 1.514 4.647 2.377 5.296.631.47 1.832.824 2.94.733-.026.111-.063.207-.129.274-.432.432-1.082.756-1.08 1.512-.002.757 1.08 1.405 4.756 1.405 1.294 0 3.025-.646 3.025-1.837 0 1.191 1.728 1.837 3.025 1.837 3.674 0 4.756-.648 4.756-1.404.002-.757-.648-1.081-1.082-1.514-.066-.066-.103-.162-.131-.273 1.11.093 2.313-.26 2.942-.731.865-.651 2.379-2.055 2.379-5.298 0-.581-.034-1.132-.084-1.649-1.309 1.003-2.653 1.653-3.141 1.875"/><path d="m877.3728 80.7333c2.123.953 4.467 1.466 5.199 2.856 0 0 .51-1.61.44-2.634 0 0 3.293 2.856 2.853 4.539 0 0 4.174-3.368 4.613-4.686 0 0 .95 1.099.584 2.123 0 0 2.637-2.782 3.002-5.124 0 0 .586.878.075 1.977 0 0 5.343-2.417 5.052-5.273 0 0 .584 1.464.291 2.856 0 0 4.395-4.905.147-9.444 0 0 1.537.219 2.49 1.39 0 0-.516-5.967-6.469-6.727.448-.666.668-1.333.668-1.915 0-2.161-.324-2.702-.972-4.647-.047-.142-.084-.278-.118-.411l.161.223s6.445-2.604 8.421-4.012c1.975-1.406 8.124-8.71 9.868-10.865 1.312-1.623 2.351-2.34 1.662-3.307-.69-.97-1.709-.221-3.67.491-2.606.944-11.514 4.374-13.49 5.782-1.18.84-3.278 3.043-4.782 4.687-.171-.196-.357-.38-.558-.547-.938-3.42-4.303-4.686-4.303-4.686.555.924.715 2.64.748 3.114-.043-.01-.088-.019-.129-.029-2.359-2.75-5.375-2.653-5.375-2.653 1.571.393 1.27 2.12 1.201 2.432-.039.003-.076.007-.117.01-3.287-1.449-5.408-.605-5.408-.605.598 0 1.711.772 2.342 1.25-1.018.371-1.955.922-2.664 1.714-1.504-1.644-3.6-3.847-4.782-4.687-1.972-1.408-10.882-4.838-13.488-5.782-1.961-.712-2.978-1.461-3.672-.491-.689.967.35 1.684 1.666 3.307 1.743 2.153 7.891 9.457 9.866 10.865 1.976 1.408 8.421 4.012 8.421 4.012l.159-.223c-.034.134-.069.266-.116.411-.65 1.945-.974 2.484-.972 4.647 0 .586.222 1.262.681 1.934-3.023.584-6.759 2.193-7.599 5.739 0 0 1.297-.325 2.377-.324 0 0-3.782 1.837-2.594 7.672 0 0 .863-2.054 2.27-2.269 0 0-1.407 3.244 1.945 5.836 0 0 .002-2.053.648-3.026 0 0 1.305 3.55 3.428 4.5"/><path d="m1261.9485 67.1205c.139.508.266 1 .361 1.437.166.766.557 2.561-.943 3.124-1.039.39-1.92-.237-2.957-1.403-.027.461-.063.918-.111 1.338-.11.981-.37 3.274-2.254 3.268-1.061-.004-1.408-.733-2.039-2.055-.258-.541-.59-1.264-.991-2.148-.002.013-.005.025-.007.037-.461 1.943-.981 4.144-1.457 5.869-.715 2.594-1.192 4.06-2.666 4.06-1.581 0-1.901-1.679-2.239-3.459-.226-1.187-.478-2.832-.752-4.888-.076-.578-.15-1.159-.218-1.723-.01.016-.018.033-.028.049-1.836 3.459-2.371 3.838-3.033 4.051-.447.142-.936.093-1.338-.137-.699-.4-1.182-.68-1.598-7.547-.679.248-1.48.568-2.242.879-.269.578-.523 1.057-.728 1.406-2.244 3.846-1.819 9.572 2.027 13.463-1.76.746-4.504.945-5.471 1.137-.677.135-2.943 2.695-2.554 3.605.388.908 4.072 1.614 4.828 1.354 1.029-.356 4.312-1.6 7.371-2.299-.533.879-1.244 1.752-1.656 2.23-.241.278-.203.993 0 1.377.261.491 7.088.696 7.507.276.303-.303 1.084-1.225 1.102-1.791.012-.401-.004-.975-.033-1.67.238.008.473.017.719.019.246-.002.48-.011.718-.019-.029.695-.045 1.269-.033 1.67.018.566.799 1.488 1.102 1.791.42.42 7.246.215 7.506-.276.205-.384.242-1.099 0-1.377-.411-.478-1.122-1.351-1.655-2.23 3.059.699 6.342 1.943 7.371 2.299.754.26 4.44-.446 4.829-1.354.388-.91-1.877-3.47-2.555-3.605-.967-.192-3.711-.391-5.473-1.137 3.846-3.891 4.274-9.617 2.029-13.463-.152-.26-.332-.59-.525-.98-.25-.151-.51-.309-.783-.477-.383-.234-.762-.471-1.131-.701"/><path d="m1267.0208 51.3725s4.027-1.072 4.1-1.441c.076-.371-3.102-1.663-5.022-1.995.789.135 6.717-3.271 6.686-3.658-.032-.386-6.451.166-6.686.407 1.588-1.626 3.115-3.26 3.582-3.842.174-.219-1.164-.184-2.824.062-.854.867-1.77 1.77-2.596 2.549.022.049.051.09.071.145.056.158.084.326.084.5 0 .875-.663 1.89-1.276 2.646-.377.463-.789.881-1.119 1.215 0 0-.086.088-.166.172.039.31.146.826.393 1.422.353.849.509 1.832.509 2.701 0 .84-.146 1.576-.404 1.986-.207.328-.506.561-.852.68.02.154.043.31.043.449 0 .654-.232 1.143-.775 1.486-.361.229-.732.286-1.406.389-.526.08-1.401.213-1.778.393-.222.105-.609.425-.982.736-1.244 1.035-3.125 2.6-6.094 2.6-2.968 0-4.849-1.565-6.095-2.6-.372-.311-.758-.631-.981-.736-.377-.18-1.254-.313-1.777-.393-.674-.103-1.045-.16-1.406-.389-.543-.343-.778-.832-.778-1.486 0-.139.026-.295.045-.449-.346-.119-.646-.352-.851-.68-.258-.41-.405-1.146-.405-1.986 0-.869.156-1.852.51-2.701.246-.596.354-1.11.391-1.422-.08-.084-.164-.17-.164-.17-.332-.336-.745-.754-1.122-1.217-.99-1.219-1.271-2.072-1.271-2.648 0-.198.033-.364.082-.498.02-.055.047-.096.07-.145-.859-.811-1.816-1.756-2.699-2.65-.875-.028-1.465.045-1.428.261.075.444 1.524 2.01 2.659 3.547 0 0-6.584-1.006-6.797-.371-.075.221 4.728 3.768 7.019 6.059 0 0-5.121.289-5.121.81 0 .369 1.652 1.199 3.795 1.826 0 0-6.432 3.016-6.283 3.532.146.517 7.017.222 7.756.443 0 0-3.065 3.51-2.77 3.879s2.881-.111 4.434-.775c0 0-6.465 8.015-6.096 8.459.369.443 8.068-3.42 9.914-3.493 0 0 .399 7.899.916 8.196.518.295 3.514-5.764 4.574-8.065 0 0 1.44 13.963 2.254 13.963.813 0 3.065-11.34 3.731-13.187 0 0 3.222 7.425 3.435 7.425 1.045.004.776-6.65.996-7.314 0 0 3.178 4.434 3.77 4.211.59-.221-1.479-5.873-1.33-6.539 0 0 8.683 5.732 9.273 5.289.592-.443-2.951-6.465-4.636-8.856 0 0 4.978 1.629 5.199 1.407.222-.221-2.522-3.825-4.186-5.596 0 0 8.018 1.92 8.313 1.551.297-.369-4.58-4.655-6.428-6.094"/><path d="m1239.7297 43.9721c-.771.15-1.348.035-1.518.113-.025.01-.041.026-.048.045-.032.09.349.91.931 1.625.674.828 1.567 1.576 1.619 1.793.11.442-.041 1.514-.494 2.608-.615 1.482-.355 3.279-.179 3.289.175.009.275-.364.796-.563.52-.197 1.028-.18 1.028-.18-.414.983-1 2.686-.776 2.827.223.142 2.084.246 3.018.689 1.367.65 3.004 3.184 6.402 3.184 3.399 0 5.034-2.534 6.403-3.184.933-.443 2.793-.547 3.017-.689.223-.141-.363-1.844-.777-2.827 0 0 .508-.017 1.029.18.522.199.621.572.797.563.176-.01.434-1.807-.182-3.289-.453-1.094-.603-2.166-.494-2.608.055-.217.946-.965 1.619-1.793.582-.715.965-1.535.932-1.625-.006-.019-.021-.035-.047-.045-.172-.078-.746.037-1.517-.113 1.623-1.172 7.662-7.318 8.962-9.1.186-.254.276-.418.243-.466-.278-.401-4.211 1.33-4.211 1.33 1.496-3.813 4.875-14.508 4.377-14.729-.5-.222-4.201 3.545-7.315 7.924-2.644 3.717-4.926 7.961-5.976 10.006.162-1.065.414-2.211.4-2.397 0-.013-.004-.021-.006-.025-.045-.047-.566.066-1.037.326-.492.27-.93.688-.93.688-.136-1.141.536-2.176.45-2.248-.071-.061-1.159.121-1.926.642-1.039.705-1.819 1.819-1.819 1.819-.708-1.774-.179-6.129-.404-6.262-.103-.061-1.508.945-2.324 2.242-.986 1.562-1.402 3.471-1.402 3.471-1.164-1.221-.948-1.854-1.172-1.969-.106-.057-.86.617-1.246 1.428-.44.922-.508 2.004-.508 2.004-.733-.932-.524-1.776-.672-1.782-.064-.002-.701.782-.918 1.846-.031.152-.057.311-.078.469-.983-1.93-3.346-6.379-6.104-10.258-3.115-4.379-6.816-8.146-7.314-7.924-.5.221 2.881 10.916 4.377 14.729 0 0-3.934-1.731-4.211-1.33-.035.048.055.212.24.466 1.303 1.782 7.342 7.928 8.965 9.1"/><path d="m798.0003 74.0795c-.014.035-.023.07-.037.105.014-.035.023-.07.037-.105m.465-1.834c-.008.052-.016.102-.026.155.01-.052.018-.104.026-.155m.115-1.537c-.002-.053-.004-.107-.006-.16.002.054.004.106.006.16m45.606-19.416c.636-.731 1.302-1.467 2.017-2.215 1.664-1.744.555-2.851-1.387-1.744-2.531 1.447-9.183 8.814-11.273 15.544-.508-1.324-1.262-2.585-2.193-3.771l2.222-1.91c.112-.149.092-.373-.043-.502l-1.355-1.278c-.135-.128-.389-.183-.565-.125l-2.947.992c-1.512-1.339-3.221-2.533-4.988-3.549l8.265-11.021-8.232 2.533-1.148-8.806-5.659 7.699-5.384-5.383 1.738 11.233c-.127-.014-.254-.026-.379-.035-.486-1.327-1.061-1.936-1.676-1.936-.949 0-2.058 1.9-2.058 1.9-4.809 0-12.274 4.768-14.801 13.157-.313-.089-.647-.135-1.002-.131-.766-.192-1.539.272-1.731 1.037-.191.763.276 1.536 1.037 1.727.657-.163 1.666.075 2.854 6.487.275 1.483-.484 3.134-1.08 3.411 0 0 .012-.006.033-.01-.771.154-1.269.903-1.115 1.676.152.771.904 1.272 1.676 1.119.629-.127 1.174-.481 1.636-.972-.009.013-.019.029-.031.04 2.067 2.254 4.848 3.672 7.408 4.563-.502-1.567-.771-3.139-.771-4.6 0-2.56-2.1-4.697-2.768-4.906-1.134-.324-1.875-1.363-1.875-2.488 0-.237.033-.473.1-.709.392-1.371 1.826-2.167 3.197-1.776 3.08.879 5.526 5.008 5.69 9.602.07 1.984.607 4.156 1.552 6.137 1.067.163 1.733.203 1.733.203.345-.477.66-1.019.951-1.61 1.809-.034 3.516-.165 5.117-.387-.562 3.03-.685 7.538-.685 7.538l3.759-3.963 2.666 3.422 1.768-3.422 3.934 1.838-.094-3.891 5.951 1.516s-3.674-4.873-6.506-6.654c2.811-1.749 4.746-3.942 5.738-6.346 1.463 5.47 5.522 12.23 10.364 14.334 1.838.799 2.293-.315.832-1.424-.27-.207-.543-.43-.817-.666.518-1.195 2.203-5.302 2.203-8.083 0-3.286-2.218-5.503-2.218-7.403 0-1.901 2.912-3.641 2.912-8.076 0-3.595-2.192-6.149-2.572-7.916"/><path d="m815.1038 89.7392c-5.686-1.777-8.746-8.391-8.93-13.541-.142-3.967-2.185-7.578-4.658-8.285-.615-.176-1.258.181-1.433.798-.176.616.179 1.258.796 1.434 1.241.354 3.801 3.073 3.801 6.278 0 4.998 3.752 12.347 9.877 14.217 1.193.419 1.32-.66.547-.901"/><path d="m957.6052 77.3085c-.676-1.676-1.766-3.056-3.098-4.089.192-2.302-.298-4.512-.754-4.704-.449-.192-2.373.994-3.894 2.727-.865-.127-1.752-.136-2.641-.023-1.49-1.758-3.39-2.98-3.847-2.796s-.987 2.385-.836 4.69c-.713.533-1.338 1.149-1.869 1.834-2.301-.19-4.51.301-4.704.754-.191.452.995 2.373 2.725 3.895-.242 1.672-.066 3.425.609 5.105 2.041 5.056 7.795 7.5 12.852 5.456 5.057-2.039 7.5-7.794 5.457-12.849"/><path d="m1008.863 75.7011c-.191-.453-2.4-.944-4.701-.754-.533-.684-1.158-1.301-1.869-1.834.148-2.305-.381-4.506-.838-4.689-.455-.185-2.358 1.037-3.846 2.796-.889-.113-1.777-.104-2.642.022-1.524-1.732-3.444-2.918-3.897-2.727-.451.192-.943 2.403-.752 4.704-1.332 1.033-2.42 2.413-3.096 4.089-2.043 5.055.401 10.81 5.455 12.849 5.057 2.044 10.811-.4 12.852-5.456.678-1.68.852-3.432.607-5.104 1.733-1.523 2.92-3.444 2.727-3.896"/><path d="m1002.9763 54.2743c-3.043-4.8-8.439-8.524-13.162-9.975.006-.213.031-.425.031-.642 0-3.13-.836-6.059-2.281-8.6.357-2.333.666-8.355.068-8.833-.586-.469-6.416.375-9.447 1-1.809-.637-3.746-1-5.771-1-2.028 0-3.963.363-5.774 1-3.031-.625-8.861-1.469-9.447-1-.598.478-.287 6.5.068 8.833-1.269 2.234-2.053 4.774-2.224 7.484-1.215-1.922-2.77-3.451-4.463-4.499-.1-1.496-.575-3.057-1.258-3.252-.625-.18-1.709.706-2.563 1.789-.117-.018-.234-.018-.351-.033-.828-1.031-1.744-2.151-2.326-1.972-.512.158-.868 1.379-1.055 2.495l-.434.099c-1.125-.609-2.447-1.161-2.881-.781-.416.368-.224 1.75.069 2.966l-.26.303c-1.324-.114-2.674.231-2.926.589-.244.346.399 1.849 1.207 2.909l-.066.332c-1.233.411-2.568.771-2.606 1.375-.037.617 1.016 1.587 2.188 2.196.096 1.75.502 3.573 1.281 5.362 1.022 2.346 2.512 4.293 4.231 5.709-1.899 3.713-2.965 7.587-2.965 11.241 0 1.207.121 2.368.344 3.484.156-.158.312-.318.478-.467v-.008c0-1.603.221-4.937 2.004-5.655 1.764-.712 4.15 1.426 5.297 2.614.381-.016.76-.005 1.139.017 1.164-1.167 3.597-3.273 5.349-2.528 1.662.704 1.906 3.691 1.906 5.378 0 .125-.004.202-.007.311 1.252 1.163 2.298 2.526 2.937 4.107.572 1.417.857 2.902.857 4.385 0 1.551-.31 3.103-.937 4.574-.494 1.164-1.17 2.217-1.98 3.143 4.531 1.409 9.691 2.153 15.168 2.153 5.478 0 10.625-.756 15.154-2.167-.807-.923-1.475-1.97-1.969-3.129-.623-1.471-.937-3.023-.937-4.574 0-1.485.285-2.968.857-4.384.637-1.582 1.687-2.944 2.937-4.108-.003-.109-.007-.187-.007-.312 0-1.688.242-4.674 1.902-5.375 1.754-.747 4.189 1.36 5.355 2.526.377-.022.756-.033 1.137-.017 1.147-1.188 3.535-3.326 5.301-2.614 1.781.72 2 4.054 2 5.655v.006c.236.214.459.434.676.662 3.054-3.893 1.517-13.473-1.844-18.772"/><path d="m1059.1477 44.2108c.162-.579.303-1.009.406-1.217.08-.16.155-.314.225-.463.801.067 1.648.325 2.473.695-1.133.38-2.186.711-3.104.985m-13.559 9.79-.004-.015c.002.007.002.011.004.017.043.325.077.633.102.915-.158 1.142-1.76.969-3.482 2.116-.362-.255-.524-.633-.411-1.184.19-.918 1.543-1.836 3.659-2.805.05.333.093.652.132.956m-10.707 2.678c-.379-.348-.937-.543-1.574-.516-2.371.095.858-7.112 2.518-9.453.929-1.308 4.353-3.941 7.17-4.179.07.149.148.303.226.463.326.651 1.008 3.44 1.582 6.34-3.789 1.849-7.57 4.284-9.922 7.345m49.674-27.726c.174-9.76-13.564-14.097-14.472-8.122-.942 6.172 9.544 4.107 9.398 8.904-.174 5.675-7.365 9.706-13.805 12.243-.916-1.355-.953-2.81-2.851-4.427-.643-.549-1.604-.58-2.516-.373-.367-.705-.992-1.299-2.006-.773-1.129.583-2.306.698-3.422.653-.127-.476-.189-1.011-.144-1.551 1.43-.578 2.931-1.417 3.931-2.392 1.899-1.851.444-2.286.848-6.384.186-1.883.033-3.006-.695-4.149-.219-2.751 2.125-5.53 2.472-6.31.354-.799-3.48-2.554-3.912-1.481-.365.91-1.505 3.684-3.134 3.797-.952-.482-1.932-.802-2.768-.802s-1.816.32-2.768.802c-1.628-.113-2.769-2.887-3.134-3.797-.432-1.073-4.264.682-3.912 1.481.347.78 2.691 3.56 2.47 6.311-.726 1.142-.877 2.265-.691 4.148.402 4.098-1.053 4.533.848 6.384.998.977 2.503 1.816 3.935 2.393.01.566-.092 1.097-.268 1.548-1.136.05-2.339-.057-3.486-.651-1.014-.526-1.64.068-2.01.773-.908-.207-1.871-.176-2.513.373-2.199 1.873-1.897 3.531-3.364 5.066-2.011 2.112-6.556 7.576-7.265 13.175-.014.091-.235 1.538-1.055 1.69-1.07.199-1.476.964-1.492 1.651-.045 1.74 1.369 2.1 2.389 1.71.156.704.742 1.262 1.502 1.332.937.087 2.425-1.036 1.572-2.636-.156-.324-.17-.39.221-.437.207.208.46.368.752.45-.28.691-.487 1.408-.602 2.152-.693 4.383 1.646 8.337 5.666 10.991.215 1.69.301 3.282-.576 5.842-.887 2.604-1.533 4.326-2.656 5.541-1.811 1.959-3.223.186-4.686.107-3.447-.179-3.9 4.008-2.732 5.542 1.873 2.455 4.562 1.402 6.316.701 1.754 1.287 4.395 1.594 5.965-.118 1.246-1.359.187-2.937 2.777-5.267.899-.316 1.543-1.172 1.543-2.178 0-1.277-1.033-2.312-2.31-2.312-.139 0-.274.015-.405.037-.285-.664-.472-1.363-.406-2.072.08-.877.799-2.192 1.783-3.608 2.143.715 4.504 1.141 6.987 1.203 4.214.105 6.668-1.285 8.675-2.992 1.621 2.047 3.008 4.158 3.123 5.397.065.709-.123 1.408-.408 2.072-.129-.022-.263-.037-.404-.037-1.276 0-2.311 1.035-2.311 2.312 0 1.006.647 1.862 1.545 2.178 2.59 2.33 1.532 3.908 2.778 5.267 1.568 1.712 4.209 1.405 5.964.118 1.752.701 4.444 1.754 6.313-.701 1.17-1.534.719-5.721-2.729-5.542-1.464.079-2.877 1.852-4.685-.107-1.125-1.215-1.77-2.937-2.66-5.541-1.969-5.769.935-6.623-.789-14.755-1.916-9.038-6.914-6.798-7.2-8.864.026-.282.059-.59.102-.915.002-.006.002-.01.004-.017l-.004.015c.205-1.614.578-3.7.98-5.637 2.497-.88 5.086-1.827 7.629-2.858.51.447.916.869 1.153 1.205 1.662 2.341 4.888 9.547 2.517 9.451-1.25-.05-2.201.74-2.056 1.904.117.937.918 1.629 1.855 1.541.418-.039.779-.229 1.053-.505.392.047.377.113.219.437-.854 1.6.634 2.723 1.574 2.636.758-.07 1.346-.628 1.502-1.332 1.019.39 2.433.03 2.388-1.71-.017-.687-.423-1.452-1.494-1.651-.818-.152-1.039-1.599-1.05-1.69-.545-4.29-3.338-8.498-5.522-11.182 8.815-3.811 16.49-8.746 16.619-15.657"/><path d="m263.4358 75.7504c1.252-1.111 2.424-2.091 2.109-2.715-.214-.423-1.239-.6-2.622-.759-.352-1.239-.866-2.409-1.518-3.505 2.098-2.243 3.692-3.961 3.147-4.797-.342-.523-3.06-.49-7.014.178-3.037-2.743-6.761-4.769-9.978-6.062-.38-1.187-.822-2.449-1.332-3.676 3.456-.939 6.926-2.569 7.524-3.496 1.73-2.67 1.727-10.169 2.462-11.03.736-.86 2.998-1.659 4.029-1.978.476-.146.452-1.476.113-1.668-.241-.135-2.297.234-5.253.287-3.028.053-5.977-.377-7.44.016-.792.212-3.377 1.854-4.781 3.171 1.031-2.278 1.906-3.524 1.879-3.777-.027-.254-.359-.459-.649-.439-.287.021-3.477 3.075-4.409 5.176-.465 1.048-1.049 3.354-1.7 5.583-1.122-.264-2.246-.354-3.313-.333.67-.914 1.027-1.698 1.073-2.003.131-.86-.076-4.574.136-5.034.217-.464 1.6-1.03 2.171-1.29.401-.181.666-1.203.428-1.43-.174-.165-1.868.307-4.016.49-2.649.226-6.107.348-7.395 2.345.095-.994.32-2.4.41-3.118.047-.384-.833-.68-1.046-.269-.877 1.701-2.634 7.155-2.696 8.708-.052 1.311.108 4.182.507 6.363-1.16 1.229-2.212 2.606-2.69 3.851-.754 1.964-.289 3.501-.28 4.562-1.726-1.245-3.967-2.92-4.088-2.703-.131.235 2.192 2.329 3.895 3.746-.106.322-.231.655-.347.988-2.023-.603-5.611-1.844-5.665-1.56-.055.288 3.338 1.745 5.397 2.526-.047.285-.055.557.008.805.216.863 1.345 2.193 2.106 2.514.483 1.851 2.522 2.814 2.794 2.716.237-.083.126-.712.221-1.639.549.627 1.515 1.886 2.329 2.469-.48 8.691 2.306 16.189 2.53 16.916-.749.344-1.984 1.496-1.898 1.737.07.201 2.037.425 2.939.247-.258.342-.433.951-.34 1.147.045.094 1.518.189 2.213-.177.261.008 1.068.006 1.329-.385.646-.968 1.522-3.257 2.326-5.728.504.314 1.031.62 1.59.91.328 2.146.652 3.586.669 3.886-.75.343-2.211 1.668-2.116 1.934.079.225 2.271.473 3.276.276-.287.382-.482 1.062-.378 1.279.05.104 1.692.21 2.467-.197.291.009 1.123-.048 1.481-.43.528-.564 1.301-2.285 2.055-4.071 1.111.251 2.231.444 3.339.569-.973 1.119-1.927 2.502-1.794 2.729.163.276 3.288-.096 4.191-.425.413.141 1.076.247 1.568.232-.223.265-.761 1.336-.57 1.495.317.264 3-.7 3.82-1.515.672-.254 5.821-1.794 6-3.438.103-.951-.318-2.022-.939-2.964.118-.209.238-.417.336-.643 1.011-2.356 1.431-4.555 1.4-6.597"/><path d="m1159.2678 43.6908c.656-2.413-2.396-2.884-1.915-6.083-1.004.518-1.941-.903-1.718-2.141-.786.457-1.109 1.186-1.119 1.833-.012.739.704 1.304.643 2.694-.091 2.103-1.553 3.058-3.058 3.377-3.014.641-3.744-1.032-5.919-.255-2.319.827-1.248 3.563-2.879 3.615-1.024.032-.701-1.363.096-1.536-1.039-.151-.575-2.272.319-2.623-3.038.064-1.726 3.199-3.07 3.807-.869.394-1.275-.299-1.12-.768-.428.295-1.193 1.635-.384 2.72 1.081 1.45.573 4.068-1.253 5.959-.018-.009-.033-.016-.049-.025-.297-.519-.623-.866-.352-1.578.327-.864-.042-1.628-.534-2.022.198 1.247-1.243 1.517-1.703.86-.594-.848.262-2.431 1.509-2.462-.591-.427-2.605-.543-3.283 1.149-.656 1.642-2.049.439-1.487-.299-.714-.082-2.006.945-1.823 2.378.084.659-.513 1.046-.995.695-.552-.405-.079-1-.105-1.678-.015-.382-.211-.891-.753-1.199.353 1.164-.592 1.963-1.205 1.938-.564-.023-.821-.786-.505-1.138-.528.106-1.008.539-1.114 1.49-.069.62-.529 1.179-1.009 1.053-.75-.198-.538-.808-.61-1.183-.049-.27-.375-.458-.128-.868.197-.33.612-.34 1.213-.042-.385-1.285-1.297-.751-1.937-.958-.721-.233-.596-.595-1.273-.665-.404-.042-.64.095-.841.17-.399.147-.739-.165-.643-.557.078-.311.39-.546.821-.471-.345-.402-1.356-.52-1.83.05-.472.569-1.152.126-.876-.53.278-.656.902-.844 1.548-.812-.279-.471-.227-1.101.69-1.555.499-.247 1.188-.155 1.546.057-.178-.674-1.032-1.146-1.645-1.001-.54.127-1.194.614-1.701.207-.466-.376-.213-.789-.937-1.166-.511-.269-.769-.501-.478-1.079 3.042-.108 2.882-2.477 5.349-3.476 2.134-.863 3.55 1.014 5.076-.044-.887-.015-.885-.762-.445-.923.589-.216 1.325.055 2.277-.2 1.006-.271 1.921-.825 2.566-1.602-.696.359-1.347.405-1.507-.073-.156-.47.661-1.078 1.31-1.365.771-.343 1.596-.567 2.46-.524-.755-.585-1.853-1.219-4.817-.714-1.659.284-3.087-.074-4.221-.642 1.104.047 2.022-.541 2.273-1.319-.981.927-3.297.542-5.963-.138-3.139-.802-7.097-4.759-11.5-1.624.082-.643 1.529-1.359 1.491-2.314-.206.406-1.61 1.204-3.184 1.411-2.256.294-4.968.951-6.488 3.558-1.151 1.974-1.264 3.85-.496 6.962-.306.475-.667.991-1.091 1.455-.935 1.02-3.059 1.971-3.356 2.247-.256.238-.878 2.068-.928 2.346-.093.541.666 1.919.844 2.073.177.155 1.023.416 1.387.269.186.548 1.469.649 1.905.618.398-.027 2.359-.688 3.925-1.057.091-.022.18-.032.269-.048.781.467 1.087 1.265 1.229 2.486.129 1.105.249 4.644.412 7.849.081 1.513-.62 5.698-.462 7.212.387 3.699 1.902 7.573 1.801 11.651-.041 1.67-.741 6.919-2.197 8.943-1.327 1.844-1.925 3.544-1.838 3.675.125.19 4.321.276 4.678 0 .197-.156.152-1.733.301-1.981.146-.247.482-.636.692-1.236.125-.362.259-1.279.397-2.006.099-.512.994-5.897 1.668-6.701.157-.187.364-.407.622-.426.4-.03.557.305 1.171.041-.499-.237-.279-.86.03-1.016.636-.319 1.091.295 1.894-.045.183-.078.316-.217.433-.387.237.721.433 1.448.573 2.183.328 1.705 1.248 7.203.192 9.304-.453.904-.846 1.588-1.092 2.198-.373.92-.475 1.558-.419 1.625.091.111 4.478.293 4.783 0 .172-.165.014-1.797.115-2.049.105-.253.527-.596.62-1.21.057-.369-.046-1.361-.06-2.104-.008-.523-.653-5.678-.335-7.057.088-.385.482-.459.678-.504.373-.086.693.304 1.085.128-.41-.261-.307-1.021.229-1.156.719-.178 1.072.307 1.808-.024.837-.379.249-2.641 3.169-2.127-.328-.333-.223-.745.026-.9.238-.148.903-.206 1.47.555-.14-1.192-1.444-1.606-2.267-1.519-.822.087-1.384.743-2.291.835-.662.068-1.325-.244-1.447-.841-.091-.449.236-.946.789-1.005.664-.071.762.444 1.557.317.815-.13.787-.833 1.529-1.038.165-.046.376-.045.587.056-.097-.261-.344-.433-.573-.409-.267.029-.432-.067-.452-.27-.02-.188.141-.334.317-.385.492-.143.744-.293.87-.444 1.765 2.159 4.041 3.855 4.918 5.115.413.594.841 1.833.892 2.808.107 2.092-1.102 6.927-1.591 7.707-.392.627-1.155 1.353-1.663 2.114-.556.833-.844 1.679-.792 1.759.029.043.236.077.545.102.331.029.77.044 1.247.047 1.381.018 3.064-.041 3.139-.149.077-.114.149-1.367.288-1.9.095-.371.357-.538.418-.958.064-.447.368-3.226.882-4.556.55-1.423 1.313-3.828 1.447-4.383.011-.046.018-.093.027-.139.247.02.498.024.715-.023.855-.183 1.386-.879 1.277-1.513-.262.625-1.096.627-1.061.134.02-.29.478-.406.601-1.018-.349.369-.859.322-1.034.206-.519-.343-.493-1.255.282-1.68.787.643 1.517 1.225 2.102 1.744.589.523 1.48 2.117 1.69 3.129.465 2.223.898 6.882.179 8.394-.323.68-.769 1.231-1.165 1.788-.134.18-.264.372-.391.596-.005.009-.012.017-.017.026-.434.743-.679 1.617-.631 1.681.011.017.068.031.14.045.49.114 1.83.136 3.05.113 1.18-.007 2.251-.057 2.308-.158.082-.146-.016-1.764.018-2.158.029-.307.271-.658.211-1.077-.115-.802-.36-3.347-.23-5.095.135-1.848.616-4.36.611-5.112-.004-.31-.038-.598-.085-.878.484-.464 1.272-.61 1.285-1.031-.586-.063-.799-.719-.512-1.15.353-.532 1.41-.774 1.716-.491-.216-.876 2.526-1.538.645-3.231.237.888-.408 1.265-.804 1.08-.473-.218-.151-.587-.562-.856-.013.481-.598.632-.834.638-.771.015-1.059-1.11-.238-1.548.768-.407 1.576.136 2.433-.42.652-.425.488-1.448.734-2.188.333-.996 1.224-1.207.482-2.788-.061.768-.622 1.3-1.26 1.095-.409-.132-.557-.564-.409-1.048.175-.574.865-.612.339-1.241-.465-.554.249-1.454 1.054-1.504-1.988-.809-2.02.534-2.426.49s-.475-.44-.09-.649c-1.358-.079-.945 1.357-1.258 1.529-.349.189-.514-.044-.895.04-.35.075-.246.793-.833.524-.635-.291.064-1.635.753-1.879-.463-.142-1.235-.027-1.773.355-.641.454-.489 1.131-1.058 1.593-.163.132-.309.254-.456.33-.065-1.182.245-2.267.133-3.231-.112-.951-.519-2.031-1.052-3.042 1.344-1.227 4.018.652 5.436-.333-.733.018-1.028-1.191-.129-1.563.898-.372 2.483 1.286 4.205.452.943-.458.972-1.443 1.967-2.314.767-.671 2.059-.792 2.378-1.719-.608.095-1.525-.444-1.099-1.192.638-1.12 1.922-.064 3.026-.673-.263-.537-.127-1.07.208-1.462.867-1.016 2.954-1.497 2.677-3.257-.337.759-1.499.62-1.393-.391.13-1.225 1.46-1.128 1.721-2.088"/><path d="m464.1516 66.6664c-.762-1.453-2.021-2.174-2.856-1.772-.067.029-.125.057-.184.081-3.229 1.504-6.621 3.245-10.349 5.324-.579.325-.942.667-1.114.98-.064.112.047.095.047.095l2.563-.257s.08.028.033.067c-.048.041-.913.974-.913.974s-.046.082.015.088c.342.021.769.032 1.28-.084 3.216-.729 6.782-1.945 10.324-3.376.72-.408 1.601-1.266 1.154-2.12"/><path d="m467.2766 72.3861c-.328-.654-.685-1.339-1.464-.68-1.348 1.138-.93-.597-1.933.035-.287.181-.318.229-.857.56-.796.482-.756-1.023-1.794-.519-2.044 1.439-4.164 2.942-6.387 4.531-.319.228-.526.669-.204 1.129.659.949 2.195 2.353 2.96 2.745.294.149.566-.037.749-.161 2.628-1.769 5.76-4.355 8.919-7.161.131-.144.103-.299.011-.479"/><path d="m464.5031 62.8822c.463-.088.92-.178 1.372-.268.407-.181.598-.651.492-.972-.147-.444-.684-.651-1.084-.492-.739.295-1.478.394-2.264.1-.528-.2-1.037-.392-1.614-.638-.487-.208-.856-.237-1.17-.2-4.96 1.4-9.594 2.867-11.676 3.853-.973.458-1.113 1.441.172 1.234 3.383-.539 8.086-1.245 12.666-2.049 1.188-.236 2.236-.418 3.106-.568"/><path d="m470.7512 75.7611c-1.299-.687.395-1.643-2.147-2.303-.349-.091-.457-.105-.666.246l-.003.001c-1.738 2.955-3.484 6.196-5.32 9.872-.341.689-.44 1.259-.365 1.677.031.099.106.038.106.038l2.398-1.821s.058-.023.054.028c-.006.049-.185 1.581-.185 1.581s.003.088.068.065c.39-.143.8-.426 1.227-.853 1.788-1.784 3.547-3.859 5.238-6.082.513-.768.231-2.112-.405-2.449"/><path d="m459.0276 58.3915c-.164-.428-.502-.921-1.221-.895-.883.035-1.469-.029-1.882-.086-.454-.065-1.163-.309-1.704-.949-.345-.407-.834-.683-1.573-.726-1.263.082-2.484.189-3.641.323-.488.2-2.403 2.884-1.865 3.122 3.802.152 7.475.244 11.018.258 1.051-.086 1.002-.699.868-1.047"/><path d="m511.0627 56.0585c-1.157-.134-2.38-.241-3.641-.323-.739.043-1.227.319-1.573.726-.542.64-1.249.884-1.706.949-.41.057-.997.121-1.879.086-.72-.026-1.059.467-1.222.895-.135.348-.183.961.868 1.047 3.544-.014 7.216-.106 11.018-.258.537-.238-1.376-2.922-1.865-3.122"/><path d="m509.3078 70.2997c-3.728-2.08-7.121-3.821-10.35-5.324-.057-.025-.118-.052-.182-.082-.836-.402-2.097.32-2.857 1.773-.447.853.434 1.712 1.155 2.12 3.541 1.431 7.106 2.647 10.322 3.376.494.113.913.141 1.247.087.116-.018.03-.11.03-.11l-.905-.965s-.025-.065.021-.059c.048.004 2.605.26 2.605.26s.079.003.045-.067c-.166-.32-.535-.675-1.131-1.009"/><path d="m511.511 64.265c-2.082-.986-6.717-2.453-11.678-3.853-.313-.037-.681-.008-1.169.2-.575.246-1.088.439-1.613.638-.787.294-1.526.195-2.266-.1-.398-.158-.934.049-1.082.492-.107.321.084.791.492.972.452.09.91.18 1.374.268.868.151 1.916.332 3.101.568 4.583.804 9.285 1.51 12.669 2.049 1.285.207 1.145-.776.172-1.234"/><path d="m492.134 73.705c-.001-.001-.001-.001-.003-.001-.207-.351-.317-.337-.666-.246-2.541.66-.85 1.616-2.147 2.303-.635.337-.918 1.681-.407 2.449 1.694 2.222 3.453 4.298 5.241 6.082.412.412.827.661 1.186.836.15.075.103-.099.103-.099l-.178-1.519s.006-.073.053-.038c.048.035 2.376 1.804 2.376 1.804s.098.086.131-.061c.064-.414-.041-.97-.371-1.637-1.833-3.677-3.581-6.917-5.318-9.873"/><path d="m505.2258 76.3134c-2.22-1.589-4.341-3.092-6.386-4.532-1.037-.504-.998 1.002-1.794.519-.539-.33-.569-.379-.855-.559-1.003-.632-.585 1.103-1.933-.035-.779-.66-1.137.025-1.466.68-.091.179-.119.335.012.479 3.159 2.805 6.291 5.392 8.919 7.161.185.124.454.31.75.161.766-.392 2.3-1.796 2.959-2.745.321-.461.113-.901-.206-1.129"/><path d="m487.135 77.8212c-1.479-.876-1.197-2.304-1.197-2.86 0-.557-.335-.974-.542-1.314-.629-1.028 1.131-1.959 1.37-2.199.239-.238.199-.741-.038-1.072-.167-.235-.587-.943-.676-1.097-.343-.6-1.001-.809-1.399-.571-.399.238-.799-.086-1.084-.572-.181-.308-.615-.706-1.082-.633-.071.026-.145.048-.218.069-.013.008-.028.015-.044.023l.002-.008c-.703.209-1.439.323-2.193.323s-1.488-.114-2.192-.323l.002.008c-.015-.008-.029-.015-.043-.021-.073-.023-.146-.045-.219-.071-.466-.073-.899.325-1.08.633-.286.486-.686.81-1.086.572-.398-.238-1.056-.029-1.399.571-.088.154-.507.862-.675 1.097-.239.331-.277.834-.038 1.072.239.24 1.999 1.171 1.371 2.199-.208.34-.543.757-.543 1.314 0 .556.281 1.984-1.199 2.86-.068.041-.135.082-.204.12-1.01 3.465-1.866 6.759-2.449 9.572.126.753 3.573 2.23 4.27 1.643.917-3.576 1.758-6.843 2.544-9.907.025-.054.047-.115.064-.179.241-.921.86-.833 1.028-.153.235 4.118.58 8.047.991 10.857.11.767.49 1.122.857 1.076.37.046.748-.309.86-1.076.409-2.81.756-6.739.99-10.857.167-.68.787-.768 1.026.153.019.064.04.125.065.179.787 3.064 1.626 6.331 2.545 9.907.698.587 4.143-.89 4.271-1.643-.583-2.813-1.44-6.107-2.45-9.572-.068-.038-.137-.079-.206-.12"/><path d="m514.2463 31.746c-.072-.321-.579-.53-.822-.291-1.437 1.398-5.552 3.553-7.188 4.472 2.105-1.76 4.627-5.099 5.88-8.273.755-1.904-.129-3.267-1.628-5.253-.222-.292-.771-.264-.869.067-.839 2.737-2.437 5.844-4.12 7.598.84-2.134 1.835-6.905 1.365-10.507-.337-2.561-2.563-3.867-3.978-4.526-.604-.282-.881.205-.817.525.706 2.688.804 6.819.045 9.446.086-3.062-1.661-8.684-3.785-10.921-1.482-1.558-3.95-1.771-5.175-1.225 2.046 3.296 3.452 6.648 4.241 9.944-2.037-4.574-4.802-6.912-5.862-7.861-.66-.588-2.71-2.074-5.52-1.128 8.151 5.758 11.84 26.32-.505 34.642-.273.103-.522.041-.785-.204-.029-.026-.052-.041-.076-.056-.666-.597-1.405-1.071-2.198-1.389-.306-.129-.439-.296-.391-.606.181-1.055.176-1.816.176-2.839 0-2.137-.814-5.132-.462-6.431.166-.614.469-1.173.923-1.576.018-.013.036-.028.053-.043.059-.051.119-.098.184-.141l-.012-.015c.427-.403 1.414-1.138 1.661-2.571.937-.203 2.04.305 2.749 1.578.017.031.032.066.053.095.017.037.038.069.056.105l.008-.013c.219.305.534.541.926.643.883.226 1.779-.308 2.006-1.188.161-.627-.067-1.259-.528-1.655.55-.257.943-.799.959-1.445.016-.6-.292-1.126-.76-1.428.391-.365.599-.914.501-1.485-.1-.58-.496-1.033-1.005-1.24.281-.43.361-.985.162-1.499-.332-.848-1.29-1.268-2.137-.938-.446.174-.769.523-.931.937-2.04-.216-3.733.991-4.873 2.339-1.483-.537-2.871-.574-3.796-1.453-1.226-1.161-1.293-2.246-2.957-2.768-1.427-.445-2.969-.265-3.996.416-.272.157-.233.462.022.557 2.347.896 2.077 2.253 4.242 4.4.519.515 1.129 1.104 1.765 1.675-1.795-.376-4.199-.763-4.222.007-.022.857 2.066.629 4.04 1.508-.991.152-1.999.467-2.569.602-.81.191-2.285-.121-3.396-.96-1.109-.841-1.281.217-.477.862.805.643 2.206 2.279 3.138 2.378.617.067 2.422.048 3.21.053 1.25.255 1.658 1.417 1.658 2.357 0 2.683-.714 4.135-.714 6.408 0 1.021.101 1.951.24 2.756v.017c.057.32-.077.491-.382.62-.777.32-1.504.787-2.157 1.374-.021.014-.043.029-.068.052-.266.245-.515.307-.79.204-12.341-8.322-8.654-28.884-.501-34.642-2.812-.946-4.862.54-5.52 1.128-1.061.949-3.828 3.287-5.863 7.861.789-3.296 2.192-6.648 4.241-9.944-1.225-.546-3.692-.333-5.175 1.225-2.125 2.237-3.873 7.859-3.786 10.921-.76-2.627-.66-6.758.046-9.446.064-.32-.212-.807-.817-.525-1.415.659-3.641 1.965-3.978 4.526-.47 3.602.525 8.373 1.364 10.507-1.681-1.754-3.28-4.861-4.119-7.598-.097-.331-.648-.359-.871-.067-1.499 1.986-2.38 3.349-1.628 5.253 1.254 3.174 3.777 6.513 5.883 8.273-1.637-.919-5.752-3.074-7.189-4.472-.244-.239-.75-.03-.822.291-.472 2.085-.828 3.733.106 4.608 2.158 2.019 6.526 3.947 8.756 5.197-1.896-.288-6.126-1.343-7.946-1.605-.355-.051-.844.404-.802.672.245 1.569.912 2.871.912 2.871.546.993 1.523 1.151 2.728 1.62 1.452.567 5.754 1.037 7.703 1.436-1.949.28-6.082.669-7.696.908-.596.137-.769.617-.59.905 1.186 1.903 2.145 2.795 4.446 2.714 3.104-.108 7.24-.209 7.24-.209-2.093.773-4.815 1.695-6.326 2.227-.601.211-.645.707-.456.935.823.986 2.376 2.432 4.333 2.042 1.763-.35 6.934-1.514 6.934-1.514-1.603 1.139-3.227 1.99-4.491 2.763-.555.296-.518.736-.293.921.901.738 2.966 2.121 4.102 1.655 1.298-.534 4.866-2.363 4.866-2.363s-1.773 2.103-2.102 2.492c-.33.392-.192 1.018.402 1.29.763.347 4 1.376 4.756.276.079-.114.248-.335.47-.621.195.497.421.968.675 1.416-.436.712-.934 1.513-1.263 1.93-.354.451-.518 1.251-.09 1.661.069.065.158.13.253.194l-1.78 2.398c-.134-.739-.2-1.448-.236-2.036-.064-1.074.262-1.358.163-1.841-.061-.294-.438-.338-.84-.277-.193-.687-.778-1.556-1.548-1.81-.284-.092-.478.116-.264.354.186.207.557 1.219.737 1.857-.289.268-.761.559.023 1.256.452.401.758 1.43.816 2.308.022.32-.222.39-.39.22-.696-.553-1.807-2.05-1.925-2.772-.102-.611-.581-1.178-1.025-.803-.019.016-.048.044-.086.078-.461-.545-1.383-1.103-2.208-.999-.295.037-.38.311-.084.432.261.108 1.061.895 1.493 1.392-.14.15-.255.28-.298.345-.196.298.156.614.885.889.586.221 2.157 1.67 2.48 2.153.233.35.04.445-.225.309-.266-.137-2.341-1.47-3.143-1.387-.527.054-.664.468-.664.82-.565.352-1.136.964-1.248 1.643-.048.295.186.454.389.207.131-.165.715-.507 1.252-.782.179.294.393.554.599.563.414.02.485-.863 1.028-.702.557.164 1.712.525 1.772 1.148.134 1.387 1.626 1.881 2.073 1.899.401.017.834.45.736.885-.169.737.411.818.85.586.015-.008.04-.021.061-.031.172.623.34 1.417.301 1.649-.052.316.225.385.413.153.493-.61.525-1.604.339-2.285.083-.033.154-.06.189-.069.178-.043.546-.842.04-1.101-.742-.379-1.274-1.017-1.661-1.764l2.634-3.952c.049.036.103.072.143.108.444.387.924.249 1.361-.338.44-.591.26-.328.89-1.174.024-.034.051-.068.076-.1 1.05.641 2.226 1 3.466 1 1.241 0 2.415-.359 3.464-1 .028.032.054.066.08.1.63.846.449.583.89 1.174.437.587.913.725 1.359.338.042-.036.093-.072.145-.108l2.633 3.952c-.388.747-.919 1.385-1.661 1.764-.506.259-.137 1.058.04 1.101.035.009.105.036.189.069-.187.681-.154 1.675.339 2.285.188.232.462.163.413-.153-.038-.232.131-1.026.3-1.649.022.01.046.023.063.031.437.232 1.018.151.849-.586-.1-.435.335-.868.737-.885.446-.018 1.936-.512 2.072-1.899.061-.623 1.215-.984 1.772-1.148.542-.161.615.722 1.028.702.205-.009.419-.269.598-.563.536.275 1.12.617 1.252.782.205.247.438.088.39-.207-.112-.679-.682-1.291-1.248-1.643-.001-.352-.139-.766-.665-.82-.801-.083-2.878 1.25-3.141 1.387-.266.136-.459.041-.226-.309.323-.483 1.895-1.932 2.478-2.153.73-.275 1.082-.591.887-.889-.046-.065-.159-.195-.297-.345.432-.497 1.23-1.284 1.492-1.392.296-.121.211-.395-.085-.432-.824-.104-1.747.454-2.208.999-.038-.034-.066-.062-.084-.078-.444-.375-.924.192-1.025.803-.119.722-1.229 2.219-1.927 2.772-.167.17-.413.1-.39-.22.058-.878.365-1.907.816-2.308.786-.697.313-.988.024-1.256.181-.638.551-1.65.738-1.857.214-.238.019-.446-.266-.354-.772.254-1.354 1.123-1.547 1.81-.402-.061-.778-.017-.84.277-.098.483.228.767.163 1.841-.036.588-.101 1.297-.235 2.036l-1.783-2.398c.098-.064.185-.129.254-.194.426-.41.266-1.21-.09-1.661-.328-.418-.826-1.218-1.263-1.932.254-.446.48-.919.673-1.415.225.287.394.508.474.622.755 1.1 3.992.071 4.753-.276.596-.272.733-.898.404-1.29-.329-.389-2.1-2.492-2.1-2.492s3.564 1.829 4.865 2.363c1.136.466 3.2-.917 4.102-1.655.225-.185.261-.625-.294-.921-1.264-.773-2.888-1.624-4.491-2.763 0 0 5.17 1.164 6.933 1.514 1.958.39 3.512-1.056 4.333-2.042.19-.228.147-.724-.456-.935-1.51-.532-4.231-1.454-6.324-2.227 0 0 4.133.101 7.237.209 2.303.081 3.264-.811 4.447-2.714.18-.288.007-.768-.59-.905-1.616-.239-5.745-.628-7.697-.908 1.952-.399 6.251-.869 7.703-1.436 1.207-.469 2.184-.627 2.732-1.62 0 0 .665-1.302.911-2.871.041-.268-.449-.723-.803-.672-1.82.262-6.05 1.317-7.946 1.605 2.228-1.25 6.599-3.178 8.758-5.197.932-.875.576-2.523.104-4.608"/></g><g><path d="m572.4895 47.5097c.057-.531-.479-1.232-.295-2.021-.348.283-.865 1.029-1.199 1.857-.348-.717.408-3.17.269-3.586-.138-.416-1.88-1.162-2.287-1.605-.402-.446-1.558-3.924-1.623-4.552 0 0-.531 1.27-.597 1.643-.084-.205-1.129-2.328-1.413-2.674-.093.637.178 4.44.444 5.598-.289-.249-1.317-1.726-1.485-2.006-.164.494-.148 1.555-.08 2.571-.214-.204-.457-.399-.793-.7.125.613.758 3.193 1.008 4.161s-1.246 2.806-.744 4.128c.315.827 1.904 1.124 2.201 1.403.297.277.432.922.752 1.291.233.266 1.313.467 2.168.49.861 3.053.15 6.537-1.831 9.722.404.41.728.775.938 1.074l.032.051c1.539 2.759 1.089 3.121.82 3.336-.28.223-.761.151-1.285-.052.268.974.117 1.255.057 1.367-.1.186-.272.316-.474.356-.553.106-1.312-.293-1.879-.701-.333.663-.784 1.243-1.347 1.243-.799 0-1.106-.883-1.309-1.748-1.203.954-2.553 1.81-4.032 2.538-.039-.042-.079-.085-.119-.126-.131-1.5-.366-3.131-.664-4.776-.04-.221-.081-.443-.124-.665 2.232.927 4.739 1.869 5.342 2.232.178.796.375 1.977.906 1.977.53 0 1.127-1.592 1.127-1.592.53.532 1.545 1.149 1.989 1.061.441-.088-.487-2.33-.487-2.33.817.508 1.778.906 1.944.773.345-.276-.961-2.618-.961-2.618-1.408-2-8.349-7.36-11.962-9.874.167-.115.318-.236.472-.356 1.638-1.288 2.541-2.889 2.541-4.417 0-.866-.903-2.313-.903-3.723 0-8.189-2.715-13.782-10.267-13.782-7.549 0-10.264 5.593-10.264 13.782 0 1.41-.904 2.857-.904 3.723 0 1.671 1.07 3.432 3.012 4.772-3.613 2.515-10.554 7.875-11.964 9.875 0 0-1.304 2.342-.96 2.618.166.133 1.126-.265 1.945-.773 0 0-.93 2.242-.486 2.33.441.088 1.457-.529 1.988-1.061 0 0 .595 1.592 1.127 1.592.529 0 .728-1.181.904-1.977.605-.363 3.111-1.305 5.342-2.232-.357 1.868-.638 3.739-.787 5.441-2.272 2.364-4.015 5.582-3.766 7.527.313 2.437.938 4.15 2.111 6.483-2.212 1.389-3.66 3.875-3.548 4.1.113.227 1.162-.037 1.837-.375-.337.525-.974 1.539-.787 1.764.188.224 2.063-.676 2.85-1.162-.338.673-.637 1.125-.525 1.273.113.15 2.423.102 4.273-.549.66-.232 3.393-1.762 3.502-2.301.162-.801-.568-1.983-.734-2.608-.096-.363-.106-1.12-.009-1.847 1.647.843 3.616 1.289 5.843 1.289.036 0 .07-.004.105-.004v.004c2.006 0 3.942-.265 5.79-.757.033.54.012 1.041-.061 1.315-.166.625-.897 1.807-.733 2.608.11.539 2.84 2.069 3.5 2.301 1.85.651 4.162.699 4.274.549.113-.148-.188-.6-.526-1.273.789.486 2.664 1.386 2.852 1.162.187-.225-.451-1.239-.789-1.764.675.338 1.726.602 1.838.375.113-.225-1.336-2.711-3.549-4.1 1.057-2.1 1.667-3.536 2.006-5.75 7.179-5.92 11.12-15.993 8.981-26.219.663-.643 1.132-1.495 1.081-2.064-.033-.379.324-2.504.381-3.035"/><path d="m1176.1086 62.2821c.27-.128.744-.734.793-1.015.087-.266.073-.589-.03-.933l1.813-.351c1.402 2.051 3.719 3.639 6.57 4.59-5.037 1.514-8.655.587-9.146-2.291zm30.437-1.948c-.103.344-.117.667-.029.933.047.281.522.887.793 1.015-.492 2.879-4.114 3.807-9.154 2.289 2.849-.952 5.164-2.54 6.565-4.59zm9.239 7.026c-2.465-1.144-5.725.039-6.844 2.203-.967 1.867-.367 4.102 1.229 5.212 1.101.767 2.771.922 3.771.132.898-.709 1.404-2.134 1-3.166-.504-1.291-1.588-1.725-2.375-1.418-.904.355-1.203 1.305-.832 2.25.145.371-.055.503-.355.178-.77-.834-.446-2.629 1.019-2.988 1.643-.398 2.783.435 3.193 1.759.397 1.286.067 2.664-1.519 4.515-3.474 4.05-10.326 5.378-15.41 2.002.963-1.294 1.48-3.011 1.48-5.15 0-1.334-.219-2.809-.654-4.263 7.562 1.151 11.43-1.752 12.379-5.168.006 0 .01.002.015.002.506 0 .977-.149 1.379-.397.403.248.873.397 1.379.397 1.467 0 2.655-1.188 2.655-2.653 0-2.074-2.223-3.525-5.256-3.525-2.051 0-3.553.69-4.479 1.541l-1.863-.73c.32-.881.494-1.821.494-2.811 0-.905-.146-1.801-.416-2.67l8.215-4.824c.316-.224.228-.464-.117-.351l-8.572 3.111c1.796-5.811 1.66-12.501.57-13.192-2.278-1.445-6.543 3.176-9.133 6.179 1.758-5.048 3.308-10.701 2.963-10.878-.344-.178-2.442 4.32-4.59 9.775v3.137c0 1.875-1.525 3.4-3.402 3.4-1.875 0-3.402-1.525-3.402-3.4v-3.137c-2.149-5.455-4.247-9.953-4.589-9.775-.345.177 1.204 5.83 2.961 10.878-2.588-3.003-6.855-7.624-9.133-6.179-1.088.691-1.224 7.381.571 13.192l-8.57-3.111c-.348-.113-.436.127-.118.351l8.202 4.817c-.271.871-.418 1.77-.418 2.677 0 .992.175 1.933.498 2.814l-1.852.727c-.927-.851-2.428-1.541-4.48-1.541-3.032 0-5.254 1.451-5.254 3.525 0 1.465 1.187 2.653 2.654 2.653.506 0 .975-.149 1.379-.397.402.248.871.397 1.379.397.006 0 .01-.002.015-.002.949 3.415 4.815 6.318 12.377 5.168-.437 1.454-.654 2.929-.654 4.263 0 3.236 1.169 5.519 3.307 6.802-.258 1.07-.371 2.888-.18 4.175-1.668.75-5.252 1.77-6.127 1.832-.875.063-4.25.188-4.25 1.625 0 .5.25 1.063.813 1.375-.188.5.375 1.75 1.375 1.75.125.5 1.187 1.313 2.25.75 1.062-.562 6.646-3.27 7.396-3.582.75-.313 2.375-1.313 2.25-2.25-.125-.938-1.061-1.34-1.334-2.012-.252-.62-.191-1.851-.034-2.788.893.226 1.881.346 2.968.346 1.086 0 2.075-.12 2.968-.346.157.937.217 2.168-.035 2.788-.271.672-1.209 1.074-1.334 2.012-.125.937 1.5 1.937 2.25 2.25.75.312 6.334 3.02 7.397 3.582 1.062.563 2.125-.25 2.25-.75 1 0 1.562-1.25 1.375-1.75.562-.312.812-.875.812-1.375 0-1.437-3.375-1.562-4.25-1.625-.875-.062-4.459-1.082-6.125-1.832.191-1.288.078-3.107-.18-4.176.041-.024.079-.053.12-.078 6.935 5.023 17.613 3.072 21.06-3.823 1.344-2.685.807-7.021-2.232-8.429z"/><path d="m1194.5442 41.246v-1.347c0-.071-.006-.141-.012-.212h-5.648c-.005.071-.01.141-.01.212v1.347z"/><path d="m1194.3879 38.9784c-.383-1.113-1.437-1.913-2.68-1.913-1.242 0-2.295.8-2.677 1.913z"/><path d="m1188.874 43.514h5.67v-1.559h-5.67z" mask="url(#c)"/><path d="m1188.8743 44.2225v1.347c0 .071.005.141.01.212h5.648c.006-.071.012-.141.012-.212v-1.347z" mask="url(#c)"/><path d="m1189.0305 46.4901c.383 1.112 1.436 1.913 2.678 1.913 1.243 0 2.297-.801 2.679-1.913z" mask="url(#c)"/></g></g></svg>