<svg height="730" viewBox="0 0 615 730" width="615" xmlns="http://www.w3.org/2000/svg" xmlns:xlink="http://www.w3.org/1999/xlink"><mask id="a" fill="#fff"><path d="m.00306297.14094334h729.84374203v729.85522766h-729.84374203z" fill="#fff" fill-rule="evenodd"/></mask><mask id="b" fill="#fff"><path d="m.00306297.14094334h729.84374203v729.85829066h-729.84374203z" fill="#fff" fill-rule="evenodd"/></mask><g fill="none" fill-rule="evenodd" opacity=".05"><path d="m364.894304.13711463c-201.45133 0-364.89124103 163.39396637-364.89124103 364.93718537 0 201.550877 163.43991103 364.921871 364.89124103 364.921871 201.527904 0 364.952501-163.370994 364.952501-364.921871 0-201.543219-163.424597-364.93718537-364.952501-364.93718537" fill="#fefefe" mask="url(#a)"/><path d="m129.626885 129.815548c63.130384-63.1125065 146.84092-97.815548 235.934548-97.815548 89.193457 0 172.911673 34.7030415 235.949907 97.815548 57.186713 57.141678 90.729289 131.342866 96.48866 211.184452h-175.722245c-5.160397-32.897192-20.595511-63.335356-44.546814-87.295516-30.010162-29.900251-69.865009-46.467957-112.169508-46.467957-78.91106 0-144.55253 58.033076-156.639529 133.763473h-175.921904c5.9820666-79.841586 39.6091134-154.042774 96.626885-211.184452" fill="#888889"/><path d="m364.894304 697.799795c-88.841353 0-172.314858-34.611525-235.266484-97.410003-56.8486646-56.978841-90.3804942-130.918861-96.3532796-210.395193h175.4314266c5.130469 32.781402 20.57548 62.989913 44.298158 86.858082 30.03239 29.963473 69.72844 46.380976 111.890179 46.380976 42.192369 0 81.926706-16.417503 111.851892-46.380976 23.891142-23.868169 39.274893-54.07668 44.420677-86.858082h175.194047c-12.604109 171.778838-156.333829 307.805196-331.466616 307.805196m108.459656-332.722432c0 59.819743-48.624598 108.429027-108.459656 108.429027-29.029268 0-56.205442-11.348292-76.520569-31.793596-20.560165-20.399359-31.586846-47.713366-31.586846-76.635431 0-28.929722 11.026681-56.12121 31.586846-76.650745 20.315127-20.475934 47.491301-31.69405 76.520569-31.69405 28.983324 0 56.159497 11.218116 76.681375 31.69405 20.514221 20.529535 31.778281 47.721023 31.778281 76.650745m-343.72614-235.281799c62.951626-62.8903664 146.425131-97.4712622 235.266484-97.4712622 88.9409 0 172.429719 34.5808958 235.289456 97.4712622 57.024786 56.940554 90.464726 130.880574 96.207789 210.448796h-175.224676c-5.145784-32.789061-20.529535-63.12009-44.420677-86.995916-29.925186-29.787353-69.659523-46.304402-111.851892-46.304402-78.679961 0-144.135562 57.828814-156.188337 133.300318h-175.4314266c5.9727854-79.568222 39.504615-153.508242 96.3532796-210.448796m235.266484-129.65538641c-201.45133 0-364.89124103 163.39396641-364.89124103 364.93718541s163.43991103 364.921871 364.89124103 364.921871c201.527904 0 364.952501-163.378652 364.952501-364.921871s-163.424597-364.93718541-364.952501-364.93718541" fill="#231916" mask="url(#b)"/><path d="m364.977152 428c34.721591 0 63.022848-28.183709 63.022848-63.011429 0-34.804862-28.301257-62.988571-63.022848-62.988571-34.729207 0-62.977152 28.183709-62.977152 62.988571 0 34.82772 28.247945 63.011429 62.977152 63.011429" fill="#231916"/><path d="m364.976952 413c27.004547 0 49.023048-21.478833 49.023048-48.007526 0-26.521166-22.018501-47.992474-49.023048-47.992474s-48.976952 21.471308-48.976952 47.992474c0 26.528693 21.972405 48.007526 48.976952 48.007526" fill="#fefefe"/></g></svg>